<?xml version="1.0" encoding="utf-8" standalone="no"?>
<!DOCTYPE svg PUBLIC "-//W3C//DTD SVG 1.1//EN"
  "http://www.w3.org/Graphics/SVG/1.1/DTD/svg11.dtd">
<!-- Created with matplotlib (https://matplotlib.org/) -->
<svg height="360pt" version="1.1" viewBox="0 0 360 360" width="360pt" xmlns="http://www.w3.org/2000/svg" xmlns:xlink="http://www.w3.org/1999/xlink">
 <defs>
  <style type="text/css">
*{stroke-linecap:butt;stroke-linejoin:round;}
  </style>
 </defs>
 <g id="figure_1">
  <g id="patch_1">
   <path d="M 0 360 
L 360 360 
L 360 0 
L 0 0 
z
" style="fill:#ffffff;"/>
  </g>
  <g id="axes_1">
   <g id="patch_2">
    <path d="M 90.5825 300.82525 
L 347.04 300.82525 
L 347.04 12.96 
L 90.5825 12.96 
z
" style="fill:#ffffff;"/>
   </g>
   <g id="matplotlib.axis_1">
    <g id="xtick_1">
     <g id="line2d_1">
      <path clip-path="url(#pbafacb0836)" d="M 118.865367 300.82525 
L 118.865367 12.96 
" style="fill:none;stroke:#b0b0b0;stroke-linecap:square;stroke-opacity:0.25;stroke-width:0.8;"/>
     </g>
     <g id="line2d_2">
      <defs>
       <path d="M 0 0 
L 0 3.5 
" id="m98a3e71b0f" style="stroke:#000000;stroke-width:0.8;"/>
      </defs>
      <g>
       <use style="stroke:#000000;stroke-width:0.8;" x="118.865367" xlink:href="#m98a3e71b0f" y="300.82525"/>
      </g>
     </g>
     <g id="text_1">
      <!-- Strongly -->
      <defs>
       <path d="M 4.5 23 
L 13.421875 23.78125 
Q 14.0625 18.40625 16.375 14.96875 
Q 18.703125 11.53125 23.578125 9.40625 
Q 28.46875 7.28125 34.578125 7.28125 
Q 39.984375 7.28125 44.140625 8.890625 
Q 48.296875 10.5 50.3125 13.296875 
Q 52.34375 16.109375 52.34375 19.4375 
Q 52.34375 22.796875 50.390625 25.3125 
Q 48.4375 27.828125 43.953125 29.546875 
Q 41.0625 30.671875 31.203125 33.03125 
Q 21.34375 35.40625 17.390625 37.5 
Q 12.25 40.1875 9.734375 44.15625 
Q 7.234375 48.140625 7.234375 53.078125 
Q 7.234375 58.5 10.296875 63.203125 
Q 13.375 67.921875 19.28125 70.359375 
Q 25.203125 72.796875 32.421875 72.796875 
Q 40.375 72.796875 46.453125 70.234375 
Q 52.546875 67.671875 55.8125 62.6875 
Q 59.078125 57.71875 59.328125 51.421875 
L 50.25 50.734375 
Q 49.515625 57.515625 45.28125 60.984375 
Q 41.0625 64.453125 32.8125 64.453125 
Q 24.21875 64.453125 20.28125 61.296875 
Q 16.359375 58.15625 16.359375 53.71875 
Q 16.359375 49.859375 19.140625 47.359375 
Q 21.875 44.875 33.421875 42.265625 
Q 44.96875 39.65625 49.265625 37.703125 
Q 55.515625 34.8125 58.484375 30.390625 
Q 61.46875 25.984375 61.46875 20.21875 
Q 61.46875 14.5 58.203125 9.4375 
Q 54.9375 4.390625 48.796875 1.578125 
Q 42.671875 -1.21875 35.015625 -1.21875 
Q 25.296875 -1.21875 18.71875 1.609375 
Q 12.15625 4.4375 8.421875 10.125 
Q 4.6875 15.828125 4.5 23 
z
" id="ArialMT-83"/>
       <path d="M 25.78125 7.859375 
L 27.046875 0.09375 
Q 23.34375 -0.6875 20.40625 -0.6875 
Q 15.625 -0.6875 12.984375 0.828125 
Q 10.359375 2.34375 9.28125 4.8125 
Q 8.203125 7.28125 8.203125 15.1875 
L 8.203125 45.015625 
L 1.765625 45.015625 
L 1.765625 51.859375 
L 8.203125 51.859375 
L 8.203125 64.703125 
L 16.9375 69.96875 
L 16.9375 51.859375 
L 25.78125 51.859375 
L 25.78125 45.015625 
L 16.9375 45.015625 
L 16.9375 14.703125 
Q 16.9375 10.9375 17.40625 9.859375 
Q 17.875 8.796875 18.921875 8.15625 
Q 19.96875 7.515625 21.921875 7.515625 
Q 23.390625 7.515625 25.78125 7.859375 
z
" id="ArialMT-116"/>
       <path d="M 6.5 0 
L 6.5 51.859375 
L 14.40625 51.859375 
L 14.40625 44 
Q 17.4375 49.515625 20 51.265625 
Q 22.5625 53.03125 25.640625 53.03125 
Q 30.078125 53.03125 34.671875 50.203125 
L 31.640625 42.046875 
Q 28.421875 43.953125 25.203125 43.953125 
Q 22.3125 43.953125 20.015625 42.21875 
Q 17.71875 40.484375 16.75 37.40625 
Q 15.28125 32.71875 15.28125 27.15625 
L 15.28125 0 
z
" id="ArialMT-114"/>
       <path d="M 3.328125 25.921875 
Q 3.328125 40.328125 11.328125 47.265625 
Q 18.015625 53.03125 27.640625 53.03125 
Q 38.328125 53.03125 45.109375 46.015625 
Q 51.90625 39.015625 51.90625 26.65625 
Q 51.90625 16.65625 48.90625 10.90625 
Q 45.90625 5.171875 40.15625 2 
Q 34.421875 -1.171875 27.640625 -1.171875 
Q 16.75 -1.171875 10.03125 5.8125 
Q 3.328125 12.796875 3.328125 25.921875 
z
M 12.359375 25.921875 
Q 12.359375 15.96875 16.703125 11.015625 
Q 21.046875 6.0625 27.640625 6.0625 
Q 34.1875 6.0625 38.53125 11.03125 
Q 42.875 16.015625 42.875 26.21875 
Q 42.875 35.84375 38.5 40.796875 
Q 34.125 45.75 27.640625 45.75 
Q 21.046875 45.75 16.703125 40.8125 
Q 12.359375 35.890625 12.359375 25.921875 
z
" id="ArialMT-111"/>
       <path d="M 6.59375 0 
L 6.59375 51.859375 
L 14.5 51.859375 
L 14.5 44.484375 
Q 20.21875 53.03125 31 53.03125 
Q 35.6875 53.03125 39.625 51.34375 
Q 43.5625 49.65625 45.515625 46.921875 
Q 47.46875 44.1875 48.25 40.4375 
Q 48.734375 37.984375 48.734375 31.890625 
L 48.734375 0 
L 39.9375 0 
L 39.9375 31.546875 
Q 39.9375 36.921875 38.90625 39.578125 
Q 37.890625 42.234375 35.28125 43.8125 
Q 32.671875 45.40625 29.15625 45.40625 
Q 23.53125 45.40625 19.453125 41.84375 
Q 15.375 38.28125 15.375 28.328125 
L 15.375 0 
z
" id="ArialMT-110"/>
       <path d="M 4.984375 -4.296875 
L 13.53125 -5.5625 
Q 14.0625 -9.515625 16.5 -11.328125 
Q 19.78125 -13.765625 25.4375 -13.765625 
Q 31.546875 -13.765625 34.859375 -11.328125 
Q 38.1875 -8.890625 39.359375 -4.5 
Q 40.046875 -1.8125 39.984375 6.78125 
Q 34.234375 0 25.640625 0 
Q 14.9375 0 9.078125 7.71875 
Q 3.21875 15.4375 3.21875 26.21875 
Q 3.21875 33.640625 5.90625 39.90625 
Q 8.59375 46.1875 13.6875 49.609375 
Q 18.796875 53.03125 25.6875 53.03125 
Q 34.859375 53.03125 40.828125 45.609375 
L 40.828125 51.859375 
L 48.921875 51.859375 
L 48.921875 7.03125 
Q 48.921875 -5.078125 46.453125 -10.125 
Q 44 -15.1875 38.640625 -18.109375 
Q 33.296875 -21.046875 25.484375 -21.046875 
Q 16.21875 -21.046875 10.5 -16.875 
Q 4.78125 -12.703125 4.984375 -4.296875 
z
M 12.25 26.859375 
Q 12.25 16.65625 16.296875 11.96875 
Q 20.359375 7.28125 26.46875 7.28125 
Q 32.515625 7.28125 36.609375 11.9375 
Q 40.71875 16.609375 40.71875 26.5625 
Q 40.71875 36.078125 36.5 40.90625 
Q 32.28125 45.75 26.3125 45.75 
Q 20.453125 45.75 16.34375 40.984375 
Q 12.25 36.234375 12.25 26.859375 
z
" id="ArialMT-103"/>
       <path d="M 6.390625 0 
L 6.390625 71.578125 
L 15.1875 71.578125 
L 15.1875 0 
z
" id="ArialMT-108"/>
       <path d="M 6.203125 -19.96875 
L 5.21875 -11.71875 
Q 8.109375 -12.5 10.25 -12.5 
Q 13.1875 -12.5 14.9375 -11.515625 
Q 16.703125 -10.546875 17.828125 -8.796875 
Q 18.65625 -7.46875 20.515625 -2.25 
Q 20.75 -1.515625 21.296875 -0.09375 
L 1.609375 51.859375 
L 11.078125 51.859375 
L 21.875 21.828125 
Q 23.96875 16.109375 25.640625 9.8125 
Q 27.15625 15.875 29.25 21.625 
L 40.328125 51.859375 
L 49.125 51.859375 
L 29.390625 -0.875 
Q 26.21875 -9.421875 24.46875 -12.640625 
Q 22.125 -17 19.09375 -19.015625 
Q 16.0625 -21.046875 11.859375 -21.046875 
Q 9.328125 -21.046875 6.203125 -19.96875 
z
" id="ArialMT-121"/>
      </defs>
      <g transform="translate(96.855679 316.560875)scale(0.12 -0.12)">
       <use xlink:href="#ArialMT-83"/>
       <use x="66.699219" xlink:href="#ArialMT-116"/>
       <use x="94.482422" xlink:href="#ArialMT-114"/>
       <use x="127.783203" xlink:href="#ArialMT-111"/>
       <use x="183.398438" xlink:href="#ArialMT-110"/>
       <use x="239.013672" xlink:href="#ArialMT-103"/>
       <use x="294.628906" xlink:href="#ArialMT-108"/>
       <use x="316.845703" xlink:href="#ArialMT-121"/>
      </g>
      <!-- critical -->
      <defs>
       <path d="M 40.4375 19 
L 49.078125 17.875 
Q 47.65625 8.9375 41.8125 3.875 
Q 35.984375 -1.171875 27.484375 -1.171875 
Q 16.84375 -1.171875 10.375 5.78125 
Q 3.90625 12.75 3.90625 25.734375 
Q 3.90625 34.125 6.6875 40.421875 
Q 9.46875 46.734375 15.15625 49.875 
Q 20.84375 53.03125 27.546875 53.03125 
Q 35.984375 53.03125 41.359375 48.75 
Q 46.734375 44.484375 48.25 36.625 
L 39.703125 35.296875 
Q 38.484375 40.53125 35.375 43.15625 
Q 32.28125 45.796875 27.875 45.796875 
Q 21.234375 45.796875 17.078125 41.03125 
Q 12.9375 36.28125 12.9375 25.984375 
Q 12.9375 15.53125 16.9375 10.796875 
Q 20.953125 6.0625 27.390625 6.0625 
Q 32.5625 6.0625 36.03125 9.234375 
Q 39.5 12.40625 40.4375 19 
z
" id="ArialMT-99"/>
       <path d="M 6.640625 61.46875 
L 6.640625 71.578125 
L 15.4375 71.578125 
L 15.4375 61.46875 
z
M 6.640625 0 
L 6.640625 51.859375 
L 15.4375 51.859375 
L 15.4375 0 
z
" id="ArialMT-105"/>
       <path d="M 40.4375 6.390625 
Q 35.546875 2.25 31.03125 0.53125 
Q 26.515625 -1.171875 21.34375 -1.171875 
Q 12.796875 -1.171875 8.203125 3 
Q 3.609375 7.171875 3.609375 13.671875 
Q 3.609375 17.484375 5.34375 20.625 
Q 7.078125 23.78125 9.890625 25.6875 
Q 12.703125 27.59375 16.21875 28.5625 
Q 18.796875 29.25 24.03125 29.890625 
Q 34.671875 31.15625 39.703125 32.90625 
Q 39.75 34.71875 39.75 35.203125 
Q 39.75 40.578125 37.25 42.78125 
Q 33.890625 45.75 27.25 45.75 
Q 21.046875 45.75 18.09375 43.578125 
Q 15.140625 41.40625 13.71875 35.890625 
L 5.125 37.0625 
Q 6.296875 42.578125 8.984375 45.96875 
Q 11.671875 49.359375 16.75 51.1875 
Q 21.828125 53.03125 28.515625 53.03125 
Q 35.15625 53.03125 39.296875 51.46875 
Q 43.453125 49.90625 45.40625 47.53125 
Q 47.359375 45.171875 48.140625 41.546875 
Q 48.578125 39.3125 48.578125 33.453125 
L 48.578125 21.734375 
Q 48.578125 9.46875 49.140625 6.21875 
Q 49.703125 2.984375 51.375 0 
L 42.1875 0 
Q 40.828125 2.734375 40.4375 6.390625 
z
M 39.703125 26.03125 
Q 34.90625 24.078125 25.34375 22.703125 
Q 19.921875 21.921875 17.671875 20.9375 
Q 15.4375 19.96875 14.203125 18.09375 
Q 12.984375 16.21875 12.984375 13.921875 
Q 12.984375 10.40625 15.640625 8.0625 
Q 18.3125 5.71875 23.4375 5.71875 
Q 28.515625 5.71875 32.46875 7.9375 
Q 36.421875 10.15625 38.28125 14.015625 
Q 39.703125 17 39.703125 22.796875 
z
" id="ArialMT-97"/>
      </defs>
      <g transform="translate(101.864742 329.39375)scale(0.12 -0.12)">
       <use xlink:href="#ArialMT-99"/>
       <use x="50" xlink:href="#ArialMT-114"/>
       <use x="83.300781" xlink:href="#ArialMT-105"/>
       <use x="105.517578" xlink:href="#ArialMT-116"/>
       <use x="133.300781" xlink:href="#ArialMT-105"/>
       <use x="155.517578" xlink:href="#ArialMT-99"/>
       <use x="205.517578" xlink:href="#ArialMT-97"/>
       <use x="261.132812" xlink:href="#ArialMT-108"/>
      </g>
     </g>
    </g>
    <g id="xtick_2">
     <g id="line2d_3">
      <path clip-path="url(#pbafacb0836)" d="M 168.838308 300.82525 
L 168.838308 12.96 
" style="fill:none;stroke:#b0b0b0;stroke-linecap:square;stroke-opacity:0.25;stroke-width:0.8;"/>
     </g>
     <g id="line2d_4">
      <g>
       <use style="stroke:#000000;stroke-width:0.8;" x="168.838308" xlink:href="#m98a3e71b0f" y="300.82525"/>
      </g>
     </g>
    </g>
    <g id="xtick_3">
     <g id="line2d_5">
      <path clip-path="url(#pbafacb0836)" d="M 218.81125 300.82525 
L 218.81125 12.96 
" style="fill:none;stroke:#b0b0b0;stroke-linecap:square;stroke-opacity:0.25;stroke-width:0.8;"/>
     </g>
     <g id="line2d_6">
      <g>
       <use style="stroke:#000000;stroke-width:0.8;" x="218.81125" xlink:href="#m98a3e71b0f" y="300.82525"/>
      </g>
     </g>
    </g>
    <g id="xtick_4">
     <g id="line2d_7">
      <path clip-path="url(#pbafacb0836)" d="M 268.784192 300.82525 
L 268.784192 12.96 
" style="fill:none;stroke:#b0b0b0;stroke-linecap:square;stroke-opacity:0.25;stroke-width:0.8;"/>
     </g>
     <g id="line2d_8">
      <g>
       <use style="stroke:#000000;stroke-width:0.8;" x="268.784192" xlink:href="#m98a3e71b0f" y="300.82525"/>
      </g>
     </g>
    </g>
    <g id="xtick_5">
     <g id="line2d_9">
      <path clip-path="url(#pbafacb0836)" d="M 318.757133 300.82525 
L 318.757133 12.96 
" style="fill:none;stroke:#b0b0b0;stroke-linecap:square;stroke-opacity:0.25;stroke-width:0.8;"/>
     </g>
     <g id="line2d_10">
      <g>
       <use style="stroke:#000000;stroke-width:0.8;" x="318.757133" xlink:href="#m98a3e71b0f" y="300.82525"/>
      </g>
     </g>
     <g id="text_2">
      <!-- Strongly -->
      <g transform="translate(296.747446 316.560875)scale(0.12 -0.12)">
       <use xlink:href="#ArialMT-83"/>
       <use x="66.699219" xlink:href="#ArialMT-116"/>
       <use x="94.482422" xlink:href="#ArialMT-114"/>
       <use x="127.783203" xlink:href="#ArialMT-111"/>
       <use x="183.398438" xlink:href="#ArialMT-110"/>
       <use x="239.013672" xlink:href="#ArialMT-103"/>
       <use x="294.628906" xlink:href="#ArialMT-108"/>
       <use x="316.845703" xlink:href="#ArialMT-121"/>
      </g>
      <!-- supportive -->
      <defs>
       <path d="M 3.078125 15.484375 
L 11.765625 16.84375 
Q 12.5 11.625 15.84375 8.84375 
Q 19.1875 6.0625 25.203125 6.0625 
Q 31.25 6.0625 34.171875 8.515625 
Q 37.109375 10.984375 37.109375 14.3125 
Q 37.109375 17.28125 34.515625 19 
Q 32.71875 20.171875 25.53125 21.96875 
Q 15.875 24.421875 12.140625 26.203125 
Q 8.40625 27.984375 6.46875 31.125 
Q 4.546875 34.28125 4.546875 38.09375 
Q 4.546875 41.546875 6.125 44.5 
Q 7.71875 47.46875 10.453125 49.421875 
Q 12.5 50.921875 16.03125 51.96875 
Q 19.578125 53.03125 23.640625 53.03125 
Q 29.734375 53.03125 34.34375 51.265625 
Q 38.96875 49.515625 41.15625 46.5 
Q 43.359375 43.5 44.1875 38.484375 
L 35.59375 37.3125 
Q 35.015625 41.3125 32.203125 43.546875 
Q 29.390625 45.796875 24.265625 45.796875 
Q 18.21875 45.796875 15.625 43.796875 
Q 13.03125 41.796875 13.03125 39.109375 
Q 13.03125 37.40625 14.109375 36.03125 
Q 15.1875 34.625 17.484375 33.6875 
Q 18.796875 33.203125 25.25 31.453125 
Q 34.578125 28.953125 38.25 27.359375 
Q 41.9375 25.78125 44.03125 22.75 
Q 46.140625 19.734375 46.140625 15.234375 
Q 46.140625 10.84375 43.578125 6.953125 
Q 41.015625 3.078125 36.171875 0.953125 
Q 31.34375 -1.171875 25.25 -1.171875 
Q 15.140625 -1.171875 9.84375 3.03125 
Q 4.546875 7.234375 3.078125 15.484375 
z
" id="ArialMT-115"/>
       <path d="M 40.578125 0 
L 40.578125 7.625 
Q 34.515625 -1.171875 24.125 -1.171875 
Q 19.53125 -1.171875 15.546875 0.578125 
Q 11.578125 2.34375 9.640625 5 
Q 7.71875 7.671875 6.9375 11.53125 
Q 6.390625 14.109375 6.390625 19.734375 
L 6.390625 51.859375 
L 15.1875 51.859375 
L 15.1875 23.09375 
Q 15.1875 16.21875 15.71875 13.8125 
Q 16.546875 10.359375 19.234375 8.375 
Q 21.921875 6.390625 25.875 6.390625 
Q 29.828125 6.390625 33.296875 8.421875 
Q 36.765625 10.453125 38.203125 13.9375 
Q 39.65625 17.4375 39.65625 24.078125 
L 39.65625 51.859375 
L 48.4375 51.859375 
L 48.4375 0 
z
" id="ArialMT-117"/>
       <path d="M 6.59375 -19.875 
L 6.59375 51.859375 
L 14.59375 51.859375 
L 14.59375 45.125 
Q 17.4375 49.078125 21 51.046875 
Q 24.5625 53.03125 29.640625 53.03125 
Q 36.28125 53.03125 41.359375 49.609375 
Q 46.4375 46.1875 49.015625 39.953125 
Q 51.609375 33.734375 51.609375 26.3125 
Q 51.609375 18.359375 48.75 11.984375 
Q 45.90625 5.609375 40.453125 2.21875 
Q 35.015625 -1.171875 29 -1.171875 
Q 24.609375 -1.171875 21.109375 0.6875 
Q 17.625 2.546875 15.375 5.375 
L 15.375 -19.875 
z
M 14.546875 25.640625 
Q 14.546875 15.625 18.59375 10.84375 
Q 22.65625 6.0625 28.421875 6.0625 
Q 34.28125 6.0625 38.453125 11.015625 
Q 42.625 15.96875 42.625 26.375 
Q 42.625 36.28125 38.546875 41.203125 
Q 34.46875 46.140625 28.8125 46.140625 
Q 23.1875 46.140625 18.859375 40.890625 
Q 14.546875 35.640625 14.546875 25.640625 
z
" id="ArialMT-112"/>
       <path d="M 21 0 
L 1.265625 51.859375 
L 10.546875 51.859375 
L 21.6875 20.796875 
Q 23.484375 15.765625 25 10.359375 
Q 26.171875 14.453125 28.265625 20.21875 
L 39.796875 51.859375 
L 48.828125 51.859375 
L 29.203125 0 
z
" id="ArialMT-118"/>
       <path d="M 42.09375 16.703125 
L 51.171875 15.578125 
Q 49.03125 7.625 43.21875 3.21875 
Q 37.40625 -1.171875 28.375 -1.171875 
Q 17 -1.171875 10.328125 5.828125 
Q 3.65625 12.84375 3.65625 25.484375 
Q 3.65625 38.578125 10.390625 45.796875 
Q 17.140625 53.03125 27.875 53.03125 
Q 38.28125 53.03125 44.875 45.953125 
Q 51.46875 38.875 51.46875 26.03125 
Q 51.46875 25.25 51.421875 23.6875 
L 12.75 23.6875 
Q 13.234375 15.140625 17.578125 10.59375 
Q 21.921875 6.0625 28.421875 6.0625 
Q 33.25 6.0625 36.671875 8.59375 
Q 40.09375 11.140625 42.09375 16.703125 
z
M 13.234375 30.90625 
L 42.1875 30.90625 
Q 41.609375 37.453125 38.875 40.71875 
Q 34.671875 45.796875 27.984375 45.796875 
Q 21.921875 45.796875 17.796875 41.75 
Q 13.671875 37.703125 13.234375 30.90625 
z
" id="ArialMT-101"/>
      </defs>
      <g transform="translate(291.076508 329.39375)scale(0.12 -0.12)">
       <use xlink:href="#ArialMT-115"/>
       <use x="50" xlink:href="#ArialMT-117"/>
       <use x="105.615234" xlink:href="#ArialMT-112"/>
       <use x="161.230469" xlink:href="#ArialMT-112"/>
       <use x="216.845703" xlink:href="#ArialMT-111"/>
       <use x="272.460938" xlink:href="#ArialMT-114"/>
       <use x="305.761719" xlink:href="#ArialMT-116"/>
       <use x="333.544922" xlink:href="#ArialMT-105"/>
       <use x="355.761719" xlink:href="#ArialMT-118"/>
       <use x="405.761719" xlink:href="#ArialMT-101"/>
      </g>
     </g>
    </g>
    <g id="text_3">
     <!-- Social bonding -->
     <defs>
      <path d="M 3.609375 23.296875 
L 17.671875 24.65625 
Q 18.953125 17.578125 22.828125 14.25 
Q 26.703125 10.9375 33.296875 10.9375 
Q 40.28125 10.9375 43.8125 13.890625 
Q 47.359375 16.84375 47.359375 20.796875 
Q 47.359375 23.34375 45.875 25.125 
Q 44.390625 26.90625 40.671875 28.21875 
Q 38.140625 29.109375 29.109375 31.34375 
Q 17.484375 34.234375 12.796875 38.421875 
Q 6.203125 44.34375 6.203125 52.828125 
Q 6.203125 58.296875 9.296875 63.0625 
Q 12.40625 67.828125 18.234375 70.3125 
Q 24.078125 72.796875 32.328125 72.796875 
Q 45.796875 72.796875 52.609375 66.890625 
Q 59.421875 60.984375 59.765625 51.125 
L 45.3125 50.484375 
Q 44.390625 56 41.328125 58.421875 
Q 38.28125 60.84375 32.171875 60.84375 
Q 25.875 60.84375 22.3125 58.25 
Q 20.015625 56.59375 20.015625 53.8125 
Q 20.015625 51.265625 22.171875 49.46875 
Q 24.90625 47.171875 35.453125 44.671875 
Q 46 42.1875 51.046875 39.515625 
Q 56.109375 36.859375 58.953125 32.25 
Q 61.8125 27.640625 61.8125 20.84375 
Q 61.8125 14.703125 58.390625 9.328125 
Q 54.984375 3.953125 48.734375 1.34375 
Q 42.484375 -1.265625 33.15625 -1.265625 
Q 19.578125 -1.265625 12.296875 5 
Q 5.03125 11.28125 3.609375 23.296875 
z
" id="Arial-BoldMT-83"/>
      <path d="M 4 26.65625 
Q 4 33.5 7.375 39.890625 
Q 10.75 46.296875 16.921875 49.65625 
Q 23.09375 53.03125 30.71875 53.03125 
Q 42.484375 53.03125 50 45.390625 
Q 57.515625 37.75 57.515625 26.078125 
Q 57.515625 14.3125 49.921875 6.5625 
Q 42.328125 -1.171875 30.8125 -1.171875 
Q 23.6875 -1.171875 17.21875 2.046875 
Q 10.75 5.28125 7.375 11.5 
Q 4 17.71875 4 26.65625 
z
M 18.0625 25.921875 
Q 18.0625 18.21875 21.71875 14.109375 
Q 25.390625 10.015625 30.765625 10.015625 
Q 36.140625 10.015625 39.765625 14.109375 
Q 43.40625 18.21875 43.40625 26.03125 
Q 43.40625 33.640625 39.765625 37.734375 
Q 36.140625 41.84375 30.765625 41.84375 
Q 25.390625 41.84375 21.71875 37.734375 
Q 18.0625 33.640625 18.0625 25.921875 
z
" id="Arial-BoldMT-111"/>
      <path d="M 52.390625 36.53125 
L 38.875 34.078125 
Q 38.1875 38.140625 35.765625 40.1875 
Q 33.34375 42.234375 29.5 42.234375 
Q 24.359375 42.234375 21.3125 38.6875 
Q 18.265625 35.15625 18.265625 26.859375 
Q 18.265625 17.625 21.359375 13.8125 
Q 24.46875 10.015625 29.6875 10.015625 
Q 33.59375 10.015625 36.078125 12.234375 
Q 38.578125 14.453125 39.59375 19.875 
L 53.078125 17.578125 
Q 50.984375 8.296875 45.015625 3.5625 
Q 39.0625 -1.171875 29.046875 -1.171875 
Q 17.671875 -1.171875 10.90625 6 
Q 4.15625 13.1875 4.15625 25.875 
Q 4.15625 38.71875 10.9375 45.875 
Q 17.71875 53.03125 29.296875 53.03125 
Q 38.765625 53.03125 44.359375 48.953125 
Q 49.953125 44.875 52.390625 36.53125 
z
" id="Arial-BoldMT-99"/>
      <path d="M 7.171875 58.890625 
L 7.171875 71.578125 
L 20.90625 71.578125 
L 20.90625 58.890625 
z
M 7.171875 0 
L 7.171875 51.859375 
L 20.90625 51.859375 
L 20.90625 0 
z
" id="Arial-BoldMT-105"/>
      <path d="M 17.4375 36.03125 
L 4.984375 38.28125 
Q 7.078125 45.796875 12.203125 49.40625 
Q 17.328125 53.03125 27.4375 53.03125 
Q 36.625 53.03125 41.109375 50.859375 
Q 45.609375 48.6875 47.4375 45.34375 
Q 49.265625 42 49.265625 33.0625 
L 49.125 17.046875 
Q 49.125 10.203125 49.78125 6.953125 
Q 50.4375 3.71875 52.25 0 
L 38.671875 0 
Q 38.140625 1.375 37.359375 4.046875 
Q 37.015625 5.28125 36.859375 5.671875 
Q 33.34375 2.25 29.34375 0.53125 
Q 25.34375 -1.171875 20.796875 -1.171875 
Q 12.796875 -1.171875 8.171875 3.171875 
Q 3.5625 7.515625 3.5625 14.15625 
Q 3.5625 18.5625 5.65625 22 
Q 7.765625 25.4375 11.546875 27.265625 
Q 15.328125 29.109375 22.46875 30.46875 
Q 32.078125 32.28125 35.796875 33.84375 
L 35.796875 35.203125 
Q 35.796875 39.15625 33.84375 40.84375 
Q 31.890625 42.53125 26.46875 42.53125 
Q 22.796875 42.53125 20.75 41.09375 
Q 18.703125 39.65625 17.4375 36.03125 
z
M 35.796875 24.90625 
Q 33.15625 24.03125 27.4375 22.796875 
Q 21.734375 21.578125 19.96875 20.40625 
Q 17.28125 18.5 17.28125 15.578125 
Q 17.28125 12.703125 19.421875 10.59375 
Q 21.578125 8.5 24.90625 8.5 
Q 28.609375 8.5 31.984375 10.9375 
Q 34.46875 12.796875 35.25 15.484375 
Q 35.796875 17.234375 35.796875 22.171875 
z
" id="Arial-BoldMT-97"/>
      <path d="M 7.171875 0 
L 7.171875 71.578125 
L 20.90625 71.578125 
L 20.90625 0 
z
" id="Arial-BoldMT-108"/>
      <path id="Arial-BoldMT-32"/>
      <path d="M 6.59375 0 
L 6.59375 71.578125 
L 20.3125 71.578125 
L 20.3125 45.796875 
Q 26.65625 53.03125 35.359375 53.03125 
Q 44.828125 53.03125 51.03125 46.171875 
Q 57.234375 39.3125 57.234375 26.46875 
Q 57.234375 13.1875 50.90625 6 
Q 44.578125 -1.171875 35.546875 -1.171875 
Q 31.109375 -1.171875 26.78125 1.046875 
Q 22.46875 3.265625 19.34375 7.625 
L 19.34375 0 
z
M 20.21875 27.046875 
Q 20.21875 19 22.75 15.140625 
Q 26.3125 9.671875 32.234375 9.671875 
Q 36.765625 9.671875 39.96875 13.546875 
Q 43.171875 17.4375 43.171875 25.78125 
Q 43.171875 34.671875 39.9375 38.59375 
Q 36.71875 42.53125 31.6875 42.53125 
Q 26.765625 42.53125 23.484375 38.6875 
Q 20.21875 34.859375 20.21875 27.046875 
z
" id="Arial-BoldMT-98"/>
      <path d="M 54.34375 0 
L 40.625 0 
L 40.625 26.46875 
Q 40.625 34.859375 39.75 37.328125 
Q 38.875 39.796875 36.890625 41.15625 
Q 34.90625 42.53125 32.125 42.53125 
Q 28.5625 42.53125 25.734375 40.578125 
Q 22.90625 38.625 21.84375 35.390625 
Q 20.796875 32.171875 20.796875 23.484375 
L 20.796875 0 
L 7.078125 0 
L 7.078125 51.859375 
L 19.828125 51.859375 
L 19.828125 44.234375 
Q 26.609375 53.03125 36.921875 53.03125 
Q 41.453125 53.03125 45.203125 51.390625 
Q 48.96875 49.75 50.890625 47.203125 
Q 52.828125 44.671875 53.578125 41.453125 
Q 54.34375 38.234375 54.34375 32.234375 
z
" id="Arial-BoldMT-110"/>
      <path d="M 54.734375 0 
L 42 0 
L 42 7.625 
Q 38.8125 3.171875 34.484375 1 
Q 30.171875 -1.171875 25.78125 -1.171875 
Q 16.84375 -1.171875 10.46875 6.03125 
Q 4.109375 13.234375 4.109375 26.125 
Q 4.109375 39.3125 10.296875 46.171875 
Q 16.5 53.03125 25.984375 53.03125 
Q 34.671875 53.03125 41.015625 45.796875 
L 41.015625 71.578125 
L 54.734375 71.578125 
z
M 18.109375 27.046875 
Q 18.109375 18.75 20.40625 15.046875 
Q 23.734375 9.671875 29.6875 9.671875 
Q 34.421875 9.671875 37.734375 13.6875 
Q 41.0625 17.71875 41.0625 25.734375 
Q 41.0625 34.671875 37.84375 38.59375 
Q 34.625 42.53125 29.59375 42.53125 
Q 24.703125 42.53125 21.40625 38.640625 
Q 18.109375 34.765625 18.109375 27.046875 
z
" id="Arial-BoldMT-100"/>
      <path d="M 5.90625 -3.421875 
L 21.578125 -5.328125 
Q 21.96875 -8.0625 23.390625 -9.078125 
Q 25.34375 -10.546875 29.546875 -10.546875 
Q 34.90625 -10.546875 37.59375 -8.9375 
Q 39.40625 -7.859375 40.328125 -5.46875 
Q 40.96875 -3.765625 40.96875 0.828125 
L 40.96875 8.40625 
Q 34.8125 0 25.4375 0 
Q 14.984375 0 8.890625 8.84375 
Q 4.109375 15.828125 4.109375 26.21875 
Q 4.109375 39.265625 10.375 46.140625 
Q 16.65625 53.03125 25.984375 53.03125 
Q 35.59375 53.03125 41.84375 44.578125 
L 41.84375 51.859375 
L 54.6875 51.859375 
L 54.6875 5.328125 
Q 54.6875 -3.859375 53.171875 -8.390625 
Q 51.65625 -12.9375 48.921875 -15.515625 
Q 46.1875 -18.109375 41.625 -19.578125 
Q 37.0625 -21.046875 30.078125 -21.046875 
Q 16.890625 -21.046875 11.375 -16.53125 
Q 5.859375 -12.015625 5.859375 -5.078125 
Q 5.859375 -4.390625 5.90625 -3.421875 
z
M 18.171875 27 
Q 18.171875 18.75 21.359375 14.90625 
Q 24.5625 11.078125 29.25 11.078125 
Q 34.28125 11.078125 37.75 15.015625 
Q 41.21875 18.953125 41.21875 26.65625 
Q 41.21875 34.71875 37.890625 38.625 
Q 34.578125 42.53125 29.5 42.53125 
Q 24.5625 42.53125 21.359375 38.6875 
Q 18.171875 34.859375 18.171875 27 
z
" id="Arial-BoldMT-103"/>
     </defs>
     <g transform="translate(175.815625 344.514375)scale(0.12 -0.12)">
      <use xlink:href="#Arial-BoldMT-83"/>
      <use x="66.699219" xlink:href="#Arial-BoldMT-111"/>
      <use x="127.783203" xlink:href="#Arial-BoldMT-99"/>
      <use x="183.398438" xlink:href="#Arial-BoldMT-105"/>
      <use x="211.181641" xlink:href="#Arial-BoldMT-97"/>
      <use x="266.796875" xlink:href="#Arial-BoldMT-108"/>
      <use x="294.580078" xlink:href="#Arial-BoldMT-32"/>
      <use x="322.363281" xlink:href="#Arial-BoldMT-98"/>
      <use x="383.447266" xlink:href="#Arial-BoldMT-111"/>
      <use x="444.53125" xlink:href="#Arial-BoldMT-110"/>
      <use x="505.615234" xlink:href="#Arial-BoldMT-100"/>
      <use x="566.699219" xlink:href="#Arial-BoldMT-105"/>
      <use x="594.482422" xlink:href="#Arial-BoldMT-110"/>
      <use x="655.566406" xlink:href="#Arial-BoldMT-103"/>
     </g>
    </g>
   </g>
   <g id="matplotlib.axis_2">
    <g id="ytick_1">
     <g id="line2d_11">
      <path clip-path="url(#pbafacb0836)" d="M 90.5825 256.838508 
L 347.04 256.838508 
" style="fill:none;stroke:#b0b0b0;stroke-linecap:square;stroke-opacity:0.25;stroke-width:0.8;"/>
     </g>
     <g id="line2d_12">
      <defs>
       <path d="M 0 0 
L -3.5 0 
" id="m5c06153e96" style="stroke:#000000;stroke-width:0.8;"/>
      </defs>
      <g>
       <use style="stroke:#000000;stroke-width:0.8;" x="90.5825" xlink:href="#m5c06153e96" y="256.838508"/>
      </g>
     </g>
     <g id="text_4">
      <!-- Strongly -->
      <g transform="translate(39.563125 255.648821)scale(0.12 -0.12)">
       <use xlink:href="#ArialMT-83"/>
       <use x="66.699219" xlink:href="#ArialMT-116"/>
       <use x="94.482422" xlink:href="#ArialMT-114"/>
       <use x="127.783203" xlink:href="#ArialMT-111"/>
       <use x="183.398438" xlink:href="#ArialMT-110"/>
       <use x="239.013672" xlink:href="#ArialMT-103"/>
       <use x="294.628906" xlink:href="#ArialMT-108"/>
       <use x="316.845703" xlink:href="#ArialMT-121"/>
      </g>
      <!-- critical -->
      <g transform="translate(49.58125 268.481696)scale(0.12 -0.12)">
       <use xlink:href="#ArialMT-99"/>
       <use x="50" xlink:href="#ArialMT-114"/>
       <use x="83.300781" xlink:href="#ArialMT-105"/>
       <use x="105.517578" xlink:href="#ArialMT-116"/>
       <use x="133.300781" xlink:href="#ArialMT-105"/>
       <use x="155.517578" xlink:href="#ArialMT-99"/>
       <use x="205.517578" xlink:href="#ArialMT-97"/>
       <use x="261.132812" xlink:href="#ArialMT-108"/>
      </g>
     </g>
    </g>
    <g id="ytick_2">
     <g id="line2d_13">
      <path clip-path="url(#pbafacb0836)" d="M 90.5825 206.865567 
L 347.04 206.865567 
" style="fill:none;stroke:#b0b0b0;stroke-linecap:square;stroke-opacity:0.25;stroke-width:0.8;"/>
     </g>
     <g id="line2d_14">
      <g>
       <use style="stroke:#000000;stroke-width:0.8;" x="90.5825" xlink:href="#m5c06153e96" y="206.865567"/>
      </g>
     </g>
    </g>
    <g id="ytick_3">
     <g id="line2d_15">
      <path clip-path="url(#pbafacb0836)" d="M 90.5825 156.892625 
L 347.04 156.892625 
" style="fill:none;stroke:#b0b0b0;stroke-linecap:square;stroke-opacity:0.25;stroke-width:0.8;"/>
     </g>
     <g id="line2d_16">
      <g>
       <use style="stroke:#000000;stroke-width:0.8;" x="90.5825" xlink:href="#m5c06153e96" y="156.892625"/>
      </g>
     </g>
    </g>
    <g id="ytick_4">
     <g id="line2d_17">
      <path clip-path="url(#pbafacb0836)" d="M 90.5825 106.919683 
L 347.04 106.919683 
" style="fill:none;stroke:#b0b0b0;stroke-linecap:square;stroke-opacity:0.25;stroke-width:0.8;"/>
     </g>
     <g id="line2d_18">
      <g>
       <use style="stroke:#000000;stroke-width:0.8;" x="90.5825" xlink:href="#m5c06153e96" y="106.919683"/>
      </g>
     </g>
    </g>
    <g id="ytick_5">
     <g id="line2d_19">
      <path clip-path="url(#pbafacb0836)" d="M 90.5825 56.946742 
L 347.04 56.946742 
" style="fill:none;stroke:#b0b0b0;stroke-linecap:square;stroke-opacity:0.25;stroke-width:0.8;"/>
     </g>
     <g id="line2d_20">
      <g>
       <use style="stroke:#000000;stroke-width:0.8;" x="90.5825" xlink:href="#m5c06153e96" y="56.946742"/>
      </g>
     </g>
     <g id="text_5">
      <!-- Strongly -->
      <g transform="translate(39.563125 55.757054)scale(0.12 -0.12)">
       <use xlink:href="#ArialMT-83"/>
       <use x="66.699219" xlink:href="#ArialMT-116"/>
       <use x="94.482422" xlink:href="#ArialMT-114"/>
       <use x="127.783203" xlink:href="#ArialMT-111"/>
       <use x="183.398438" xlink:href="#ArialMT-110"/>
       <use x="239.013672" xlink:href="#ArialMT-103"/>
       <use x="294.628906" xlink:href="#ArialMT-108"/>
       <use x="316.845703" xlink:href="#ArialMT-121"/>
      </g>
      <!-- supportive -->
      <g transform="translate(28.22125 68.589929)scale(0.12 -0.12)">
       <use xlink:href="#ArialMT-115"/>
       <use x="50" xlink:href="#ArialMT-117"/>
       <use x="105.615234" xlink:href="#ArialMT-112"/>
       <use x="161.230469" xlink:href="#ArialMT-112"/>
       <use x="216.845703" xlink:href="#ArialMT-111"/>
       <use x="272.460938" xlink:href="#ArialMT-114"/>
       <use x="305.761719" xlink:href="#ArialMT-116"/>
       <use x="333.544922" xlink:href="#ArialMT-105"/>
       <use x="355.761719" xlink:href="#ArialMT-118"/>
       <use x="405.761719" xlink:href="#ArialMT-101"/>
      </g>
     </g>
    </g>
    <g id="text_6">
     <!-- Credible signalling -->
     <defs>
      <path d="M 53.078125 26.3125 
L 67.09375 21.875 
Q 63.875 10.15625 56.375 4.46875 
Q 48.875 -1.21875 37.359375 -1.21875 
Q 23.09375 -1.21875 13.90625 8.515625 
Q 4.734375 18.265625 4.734375 35.15625 
Q 4.734375 53.03125 13.953125 62.90625 
Q 23.1875 72.796875 38.234375 72.796875 
Q 51.375 72.796875 59.578125 65.046875 
Q 64.453125 60.453125 66.890625 51.859375 
L 52.59375 48.4375 
Q 51.3125 54 47.28125 57.21875 
Q 43.265625 60.453125 37.5 60.453125 
Q 29.546875 60.453125 24.578125 54.734375 
Q 19.625 49.03125 19.625 36.234375 
Q 19.625 22.65625 24.5 16.890625 
Q 29.390625 11.140625 37.203125 11.140625 
Q 42.96875 11.140625 47.109375 14.796875 
Q 51.265625 18.453125 53.078125 26.3125 
z
" id="Arial-BoldMT-67"/>
      <path d="M 20.3125 0 
L 6.59375 0 
L 6.59375 51.859375 
L 19.34375 51.859375 
L 19.34375 44.484375 
Q 22.609375 49.703125 25.21875 51.359375 
Q 27.828125 53.03125 31.15625 53.03125 
Q 35.84375 53.03125 40.1875 50.4375 
L 35.9375 38.484375 
Q 32.46875 40.71875 29.5 40.71875 
Q 26.609375 40.71875 24.609375 39.125 
Q 22.609375 37.546875 21.453125 33.390625 
Q 20.3125 29.25 20.3125 16.015625 
z
" id="Arial-BoldMT-114"/>
      <path d="M 37.203125 16.5 
L 50.875 14.203125 
Q 48.25 6.6875 42.546875 2.75 
Q 36.859375 -1.171875 28.328125 -1.171875 
Q 14.796875 -1.171875 8.296875 7.671875 
Q 3.171875 14.75 3.171875 25.53125 
Q 3.171875 38.421875 9.90625 45.71875 
Q 16.65625 53.03125 26.953125 53.03125 
Q 38.53125 53.03125 45.21875 45.390625 
Q 51.90625 37.75 51.609375 21.96875 
L 17.234375 21.96875 
Q 17.390625 15.875 20.5625 12.46875 
Q 23.734375 9.078125 28.46875 9.078125 
Q 31.6875 9.078125 33.875 10.828125 
Q 36.078125 12.59375 37.203125 16.5 
z
M 37.984375 30.375 
Q 37.84375 36.328125 34.90625 39.421875 
Q 31.984375 42.53125 27.78125 42.53125 
Q 23.296875 42.53125 20.359375 39.265625 
Q 17.4375 35.984375 17.484375 30.375 
z
" id="Arial-BoldMT-101"/>
      <path d="M 2.34375 14.796875 
L 16.109375 16.890625 
Q 17 12.890625 19.671875 10.8125 
Q 22.359375 8.734375 27.203125 8.734375 
Q 32.515625 8.734375 35.203125 10.6875 
Q 37.015625 12.0625 37.015625 14.359375 
Q 37.015625 15.921875 36.03125 16.9375 
Q 35.015625 17.921875 31.453125 18.75 
Q 14.84375 22.40625 10.40625 25.4375 
Q 4.25 29.640625 4.25 37.109375 
Q 4.25 43.84375 9.5625 48.4375 
Q 14.890625 53.03125 26.078125 53.03125 
Q 36.71875 53.03125 41.890625 49.5625 
Q 47.078125 46.09375 49.03125 39.3125 
L 36.078125 36.921875 
Q 35.25 39.9375 32.921875 41.546875 
Q 30.609375 43.171875 26.3125 43.171875 
Q 20.90625 43.171875 18.5625 41.65625 
Q 17 40.578125 17 38.875 
Q 17 37.40625 18.359375 36.375 
Q 20.21875 35.015625 31.171875 32.515625 
Q 42.140625 30.03125 46.484375 26.421875 
Q 50.78125 22.75 50.78125 16.21875 
Q 50.78125 9.078125 44.828125 3.953125 
Q 38.875 -1.171875 27.203125 -1.171875 
Q 16.609375 -1.171875 10.421875 3.125 
Q 4.25 7.421875 2.34375 14.796875 
z
" id="Arial-BoldMT-115"/>
     </defs>
     <g transform="translate(21.695625 210.563563)rotate(-90)scale(0.12 -0.12)">
      <use xlink:href="#Arial-BoldMT-67"/>
      <use x="72.216797" xlink:href="#Arial-BoldMT-114"/>
      <use x="111.132812" xlink:href="#Arial-BoldMT-101"/>
      <use x="166.748047" xlink:href="#Arial-BoldMT-100"/>
      <use x="227.832031" xlink:href="#Arial-BoldMT-105"/>
      <use x="255.615234" xlink:href="#Arial-BoldMT-98"/>
      <use x="316.699219" xlink:href="#Arial-BoldMT-108"/>
      <use x="344.482422" xlink:href="#Arial-BoldMT-101"/>
      <use x="400.097656" xlink:href="#Arial-BoldMT-32"/>
      <use x="427.880859" xlink:href="#Arial-BoldMT-115"/>
      <use x="483.496094" xlink:href="#Arial-BoldMT-105"/>
      <use x="511.279297" xlink:href="#Arial-BoldMT-103"/>
      <use x="572.363281" xlink:href="#Arial-BoldMT-110"/>
      <use x="633.447266" xlink:href="#Arial-BoldMT-97"/>
      <use x="689.0625" xlink:href="#Arial-BoldMT-108"/>
      <use x="716.845703" xlink:href="#Arial-BoldMT-108"/>
      <use x="744.628906" xlink:href="#Arial-BoldMT-105"/>
      <use x="772.412109" xlink:href="#Arial-BoldMT-110"/>
      <use x="833.496094" xlink:href="#Arial-BoldMT-103"/>
     </g>
    </g>
   </g>
   <g id="PathCollection_1">
    <defs>
     <path d="M 0 1.118034 
C 0.296506 1.118034 0.580908 1.000231 0.790569 0.790569 
C 1.000231 0.580908 1.118034 0.296506 1.118034 0 
C 1.118034 -0.296506 1.000231 -0.580908 0.790569 -0.790569 
C 0.580908 -1.000231 0.296506 -1.118034 0 -1.118034 
C -0.296506 -1.118034 -0.580908 -1.000231 -0.790569 -0.790569 
C -1.000231 -0.580908 -1.118034 -0.296506 -1.118034 0 
C -1.118034 0.296506 -1.000231 0.580908 -0.790569 0.790569 
C -0.580908 1.000231 -0.296506 1.118034 0 1.118034 
z
" id="m0d0a048faa" style="stroke:#d62728;"/>
    </defs>
    <g clip-path="url(#pbafacb0836)">
     <use style="fill:#d62728;stroke:#d62728;" x="118.865367" xlink:href="#m0d0a048faa" y="256.838508"/>
    </g>
   </g>
   <g id="PathCollection_2">
    <defs>
     <path d="M 0 8.732125 
C 2.315787 8.732125 4.537036 7.812053 6.174545 6.174545 
C 7.812053 4.537036 8.732125 2.315787 8.732125 0 
C 8.732125 -2.315787 7.812053 -4.537036 6.174545 -6.174545 
C 4.537036 -7.812053 2.315787 -8.732125 0 -8.732125 
C -2.315787 -8.732125 -4.537036 -7.812053 -6.174545 -6.174545 
C -7.812053 -4.537036 -8.732125 -2.315787 -8.732125 0 
C -8.732125 2.315787 -7.812053 4.537036 -6.174545 6.174545 
C -4.537036 7.812053 -2.315787 8.732125 0 8.732125 
z
" id="m68a909348a" style="stroke:#d62728;"/>
    </defs>
    <g clip-path="url(#pbafacb0836)">
     <use style="fill:#d62728;stroke:#d62728;" x="118.865367" xlink:href="#m68a909348a" y="206.865567"/>
    </g>
   </g>
   <g id="PathCollection_3">
    <g clip-path="url(#pbafacb0836)">
     <use style="fill:#d62728;stroke:#d62728;" x="118.865367" xlink:href="#m0d0a048faa" y="156.892625"/>
    </g>
   </g>
   <g id="PathCollection_4">
    <g clip-path="url(#pbafacb0836)">
     <use style="fill:#d62728;stroke:#d62728;" x="118.865367" xlink:href="#m68a909348a" y="106.919683"/>
    </g>
   </g>
   <g id="PathCollection_5">
    <g clip-path="url(#pbafacb0836)">
     <use style="fill:#d62728;stroke:#d62728;" x="118.865367" xlink:href="#m68a909348a" y="56.946742"/>
    </g>
   </g>
   <g id="PathCollection_6">
    <g clip-path="url(#pbafacb0836)">
     <use style="fill:#d62728;stroke:#d62728;" x="168.838308" xlink:href="#m0d0a048faa" y="256.838508"/>
    </g>
   </g>
   <g id="PathCollection_7">
    <defs>
     <path d="M 0 12.298374 
C 3.261567 12.298374 6.389988 11.00254 8.696264 8.696264 
C 11.00254 6.389988 12.298374 3.261567 12.298374 0 
C 12.298374 -3.261567 11.00254 -6.389988 8.696264 -8.696264 
C 6.389988 -11.00254 3.261567 -12.298374 0 -12.298374 
C -3.261567 -12.298374 -6.389988 -11.00254 -8.696264 -8.696264 
C -11.00254 -6.389988 -12.298374 -3.261567 -12.298374 0 
C -12.298374 3.261567 -11.00254 6.389988 -8.696264 8.696264 
C -6.389988 11.00254 -3.261567 12.298374 0 12.298374 
z
" id="m5a119fc43a" style="stroke:#d62728;"/>
    </defs>
    <g clip-path="url(#pbafacb0836)">
     <use style="fill:#d62728;stroke:#d62728;" x="168.838308" xlink:href="#m5a119fc43a" y="206.865567"/>
    </g>
   </g>
   <g id="PathCollection_8">
    <g clip-path="url(#pbafacb0836)">
     <use style="fill:#d62728;stroke:#d62728;" x="168.838308" xlink:href="#m68a909348a" y="156.892625"/>
    </g>
   </g>
   <g id="PathCollection_9">
    <g clip-path="url(#pbafacb0836)">
     <use style="fill:#d62728;stroke:#d62728;" x="168.838308" xlink:href="#m5a119fc43a" y="106.919683"/>
    </g>
   </g>
   <g id="PathCollection_10">
    <g clip-path="url(#pbafacb0836)">
     <use style="fill:#d62728;stroke:#d62728;" x="168.838308" xlink:href="#m0d0a048faa" y="56.946742"/>
    </g>
   </g>
   <g id="PathCollection_11">
    <g clip-path="url(#pbafacb0836)">
     <use style="fill:#d62728;stroke:#d62728;" x="218.81125" xlink:href="#m68a909348a" y="256.838508"/>
    </g>
   </g>
   <g id="PathCollection_12">
    <g clip-path="url(#pbafacb0836)">
     <use style="fill:#d62728;stroke:#d62728;" x="218.81125" xlink:href="#m5a119fc43a" y="206.865567"/>
    </g>
   </g>
   <g id="PathCollection_13">
    <g clip-path="url(#pbafacb0836)">
     <use style="fill:#d62728;stroke:#d62728;" x="218.81125" xlink:href="#m5a119fc43a" y="156.892625"/>
    </g>
   </g>
   <g id="PathCollection_14">
    <g clip-path="url(#pbafacb0836)">
     <use style="fill:#d62728;stroke:#d62728;" x="218.81125" xlink:href="#m0d0a048faa" y="106.919683"/>
    </g>
   </g>
   <g id="PathCollection_15">
    <g clip-path="url(#pbafacb0836)">
     <use style="fill:#d62728;stroke:#d62728;" x="218.81125" xlink:href="#m0d0a048faa" y="56.946742"/>
    </g>
   </g>
   <g id="PathCollection_16">
    <g clip-path="url(#pbafacb0836)">
     <use style="fill:#d62728;stroke:#d62728;" x="268.784192" xlink:href="#m5a119fc43a" y="256.838508"/>
    </g>
   </g>
   <g id="PathCollection_17">
    <defs>
     <path d="M 0 21.242646 
C 5.633616 21.242646 11.037251 19.004387 15.020819 15.020819 
C 19.004387 11.037251 21.242646 5.633616 21.242646 0 
C 21.242646 -5.633616 19.004387 -11.037251 15.020819 -15.020819 
C 11.037251 -19.004387 5.633616 -21.242646 0 -21.242646 
C -5.633616 -21.242646 -11.037251 -19.004387 -15.020819 -15.020819 
C -19.004387 -11.037251 -21.242646 -5.633616 -21.242646 0 
C -21.242646 5.633616 -19.004387 11.037251 -15.020819 15.020819 
C -11.037251 19.004387 -5.633616 21.242646 0 21.242646 
z
" id="mc1e40169ea" style="stroke:#d62728;"/>
    </defs>
    <g clip-path="url(#pbafacb0836)">
     <use style="fill:#d62728;stroke:#d62728;" x="268.784192" xlink:href="#mc1e40169ea" y="206.865567"/>
    </g>
   </g>
   <g id="PathCollection_18">
    <defs>
     <path d="M 0 19.397165 
C 5.144188 19.397165 10.078376 17.353357 13.715867 13.715867 
C 17.353357 10.078376 19.397165 5.144188 19.397165 0 
C 19.397165 -5.144188 17.353357 -10.078376 13.715867 -13.715867 
C 10.078376 -17.353357 5.144188 -19.397165 0 -19.397165 
C -5.144188 -19.397165 -10.078376 -17.353357 -13.715867 -13.715867 
C -17.353357 -10.078376 -19.397165 -5.144188 -19.397165 0 
C -19.397165 5.144188 -17.353357 10.078376 -13.715867 13.715867 
C -10.078376 17.353357 -5.144188 19.397165 0 19.397165 
z
" id="mb9101587ad" style="stroke:#d62728;"/>
    </defs>
    <g clip-path="url(#pbafacb0836)">
     <use style="fill:#d62728;stroke:#d62728;" x="268.784192" xlink:href="#mb9101587ad" y="156.892625"/>
    </g>
   </g>
   <g id="PathCollection_19">
    <defs>
     <path d="M 0 17.356555 
C 4.603012 17.356555 9.018117 15.527759 12.272938 12.272938 
C 15.527759 9.018117 17.356555 4.603012 17.356555 0 
C 17.356555 -4.603012 15.527759 -9.018117 12.272938 -12.272938 
C 9.018117 -15.527759 4.603012 -17.356555 0 -17.356555 
C -4.603012 -17.356555 -9.018117 -15.527759 -12.272938 -12.272938 
C -15.527759 -9.018117 -17.356555 -4.603012 -17.356555 0 
C -17.356555 4.603012 -15.527759 9.018117 -12.272938 12.272938 
C -9.018117 15.527759 -4.603012 17.356555 0 17.356555 
z
" id="me826ad006c" style="stroke:#d62728;"/>
    </defs>
    <g clip-path="url(#pbafacb0836)">
     <use style="fill:#d62728;stroke:#d62728;" x="268.784192" xlink:href="#me826ad006c" y="106.919683"/>
    </g>
   </g>
   <g id="PathCollection_20">
    <g clip-path="url(#pbafacb0836)">
     <use style="fill:#d62728;stroke:#d62728;" x="268.784192" xlink:href="#m68a909348a" y="56.946742"/>
    </g>
   </g>
   <g id="PathCollection_21">
    <g clip-path="url(#pbafacb0836)">
     <use style="fill:#d62728;stroke:#d62728;" x="318.757133" xlink:href="#m0d0a048faa" y="256.838508"/>
    </g>
   </g>
   <g id="PathCollection_22">
    <g clip-path="url(#pbafacb0836)">
     <use style="fill:#d62728;stroke:#d62728;" x="318.757133" xlink:href="#m0d0a048faa" y="206.865567"/>
    </g>
   </g>
   <g id="PathCollection_23">
    <g clip-path="url(#pbafacb0836)">
     <use style="fill:#d62728;stroke:#d62728;" x="318.757133" xlink:href="#m5a119fc43a" y="156.892625"/>
    </g>
   </g>
   <g id="PathCollection_24">
    <g clip-path="url(#pbafacb0836)">
     <use style="fill:#d62728;stroke:#d62728;" x="318.757133" xlink:href="#m68a909348a" y="106.919683"/>
    </g>
   </g>
   <g id="PathCollection_25">
    <g clip-path="url(#pbafacb0836)">
     <use style="fill:#d62728;stroke:#d62728;" x="318.757133" xlink:href="#m0d0a048faa" y="56.946742"/>
    </g>
   </g>
   <g id="text_7">
    <!-- 1 -->
    <defs>
     <path d="M 39.359375 0 
L 25.640625 0 
L 25.640625 51.703125 
Q 18.109375 44.671875 7.90625 41.3125 
L 7.90625 53.765625 
Q 13.28125 55.515625 19.578125 60.421875 
Q 25.875 65.328125 28.21875 71.875 
L 39.359375 71.875 
z
" id="Arial-BoldMT-49"/>
    </defs>
    <g style="fill:#ffffff;" transform="translate(115.528804 210.975651)scale(0.12 -0.12)">
     <use xlink:href="#Arial-BoldMT-49"/>
    </g>
   </g>
   <g id="text_8">
    <!-- 1 -->
    <g style="fill:#ffffff;" transform="translate(115.528804 111.029767)scale(0.12 -0.12)">
     <use xlink:href="#Arial-BoldMT-49"/>
    </g>
   </g>
   <g id="text_9">
    <!-- 1 -->
    <g style="fill:#ffffff;" transform="translate(115.528804 61.056825)scale(0.12 -0.12)">
     <use xlink:href="#Arial-BoldMT-49"/>
    </g>
   </g>
   <g id="text_10">
    <!-- 2 -->
    <defs>
     <path d="M 50.59375 12.75 
L 50.59375 0 
L 2.484375 0 
Q 3.265625 7.234375 7.171875 13.703125 
Q 11.078125 20.171875 22.609375 30.859375 
Q 31.890625 39.5 33.984375 42.578125 
Q 36.8125 46.828125 36.8125 50.984375 
Q 36.8125 55.5625 34.34375 58.03125 
Q 31.890625 60.5 27.546875 60.5 
Q 23.25 60.5 20.703125 57.90625 
Q 18.171875 55.328125 17.78125 49.3125 
L 4.109375 50.6875 
Q 5.328125 62.015625 11.765625 66.9375 
Q 18.21875 71.875 27.875 71.875 
Q 38.484375 71.875 44.53125 66.15625 
Q 50.59375 60.453125 50.59375 51.953125 
Q 50.59375 47.125 48.859375 42.75 
Q 47.125 38.375 43.359375 33.59375 
Q 40.875 30.421875 34.375 24.453125 
Q 27.875 18.5 26.140625 16.546875 
Q 24.421875 14.59375 23.34375 12.75 
z
" id="Arial-BoldMT-50"/>
    </defs>
    <g style="fill:#ffffff;" transform="translate(165.501746 210.975651)scale(0.12 -0.12)">
     <use xlink:href="#Arial-BoldMT-50"/>
    </g>
   </g>
   <g id="text_11">
    <!-- 1 -->
    <g style="fill:#ffffff;" transform="translate(165.501746 161.002709)scale(0.12 -0.12)">
     <use xlink:href="#Arial-BoldMT-49"/>
    </g>
   </g>
   <g id="text_12">
    <!-- 2 -->
    <g style="fill:#ffffff;" transform="translate(165.501746 111.029767)scale(0.12 -0.12)">
     <use xlink:href="#Arial-BoldMT-50"/>
    </g>
   </g>
   <g id="text_13">
    <!-- 1 -->
    <g style="fill:#ffffff;" transform="translate(215.474687 260.948592)scale(0.12 -0.12)">
     <use xlink:href="#Arial-BoldMT-49"/>
    </g>
   </g>
   <g id="text_14">
    <!-- 2 -->
    <g style="fill:#ffffff;" transform="translate(215.474687 210.975651)scale(0.12 -0.12)">
     <use xlink:href="#Arial-BoldMT-50"/>
    </g>
   </g>
   <g id="text_15">
    <!-- 2 -->
    <g style="fill:#ffffff;" transform="translate(215.474687 161.002709)scale(0.12 -0.12)">
     <use xlink:href="#Arial-BoldMT-50"/>
    </g>
   </g>
   <g id="text_16">
    <!-- 2 -->
    <g style="fill:#ffffff;" transform="translate(265.447629 260.948592)scale(0.12 -0.12)">
     <use xlink:href="#Arial-BoldMT-50"/>
    </g>
   </g>
   <g id="text_17">
    <!-- 6 -->
    <defs>
     <path d="M 50.734375 54.046875 
L 37.453125 52.59375 
Q 36.96875 56.6875 34.90625 58.640625 
Q 32.859375 60.59375 29.59375 60.59375 
Q 25.25 60.59375 22.234375 56.6875 
Q 19.234375 52.78125 18.453125 40.4375 
Q 23.578125 46.484375 31.203125 46.484375 
Q 39.796875 46.484375 45.921875 39.9375 
Q 52.046875 33.40625 52.046875 23.046875 
Q 52.046875 12.0625 45.59375 5.421875 
Q 39.15625 -1.21875 29.046875 -1.21875 
Q 18.21875 -1.21875 11.234375 7.203125 
Q 4.25 15.625 4.25 34.8125 
Q 4.25 54.5 11.515625 63.1875 
Q 18.796875 71.875 30.421875 71.875 
Q 38.578125 71.875 43.921875 67.3125 
Q 49.265625 62.75 50.734375 54.046875 
z
M 19.625 24.125 
Q 19.625 17.4375 22.703125 13.796875 
Q 25.78125 10.15625 29.734375 10.15625 
Q 33.546875 10.15625 36.078125 13.125 
Q 38.625 16.109375 38.625 22.90625 
Q 38.625 29.890625 35.890625 33.125 
Q 33.15625 36.375 29.046875 36.375 
Q 25.09375 36.375 22.359375 33.265625 
Q 19.625 30.171875 19.625 24.125 
z
" id="Arial-BoldMT-54"/>
    </defs>
    <g style="fill:#ffffff;" transform="translate(265.447629 210.975651)scale(0.12 -0.12)">
     <use xlink:href="#Arial-BoldMT-54"/>
    </g>
   </g>
   <g id="text_18">
    <!-- 5 -->
    <defs>
     <path d="M 4.4375 18.40625 
L 18.109375 19.828125 
Q 18.703125 15.1875 21.578125 12.46875 
Q 24.46875 9.765625 28.21875 9.765625 
Q 32.515625 9.765625 35.5 13.25 
Q 38.484375 16.75 38.484375 23.78125 
Q 38.484375 30.375 35.515625 33.671875 
Q 32.5625 36.96875 27.828125 36.96875 
Q 21.921875 36.96875 17.234375 31.734375 
L 6.109375 33.34375 
L 13.140625 70.609375 
L 49.421875 70.609375 
L 49.421875 57.765625 
L 23.53125 57.765625 
L 21.390625 45.609375 
Q 25.984375 47.90625 30.765625 47.90625 
Q 39.890625 47.90625 46.234375 41.265625 
Q 52.59375 34.625 52.59375 24.03125 
Q 52.59375 15.1875 47.46875 8.25 
Q 40.484375 -1.21875 28.078125 -1.21875 
Q 18.171875 -1.21875 11.921875 4.09375 
Q 5.671875 9.421875 4.4375 18.40625 
z
" id="Arial-BoldMT-53"/>
    </defs>
    <g style="fill:#ffffff;" transform="translate(265.447629 161.002709)scale(0.12 -0.12)">
     <use xlink:href="#Arial-BoldMT-53"/>
    </g>
   </g>
   <g id="text_19">
    <!-- 4 -->
    <defs>
     <path d="M 31.15625 0 
L 31.15625 14.40625 
L 1.859375 14.40625 
L 1.859375 26.421875 
L 32.90625 71.875 
L 44.4375 71.875 
L 44.4375 26.46875 
L 53.328125 26.46875 
L 53.328125 14.40625 
L 44.4375 14.40625 
L 44.4375 0 
z
M 31.15625 26.46875 
L 31.15625 50.921875 
L 14.703125 26.46875 
z
" id="Arial-BoldMT-52"/>
    </defs>
    <g style="fill:#ffffff;" transform="translate(265.447629 111.029767)scale(0.12 -0.12)">
     <use xlink:href="#Arial-BoldMT-52"/>
    </g>
   </g>
   <g id="text_20">
    <!-- 1 -->
    <g style="fill:#ffffff;" transform="translate(265.447629 61.056825)scale(0.12 -0.12)">
     <use xlink:href="#Arial-BoldMT-49"/>
    </g>
   </g>
   <g id="text_21">
    <!-- 2 -->
    <g style="fill:#ffffff;" transform="translate(315.420571 161.002709)scale(0.12 -0.12)">
     <use xlink:href="#Arial-BoldMT-50"/>
    </g>
   </g>
   <g id="text_22">
    <!-- 1 -->
    <g style="fill:#ffffff;" transform="translate(315.420571 111.029767)scale(0.12 -0.12)">
     <use xlink:href="#Arial-BoldMT-49"/>
    </g>
   </g>
  </g>
 </g>
 <defs>
  <clipPath id="pbafacb0836">
   <rect height="287.86525" width="256.4575" x="90.5825" y="12.96"/>
  </clipPath>
 </defs>
</svg>
