<?xml version="1.0" encoding="utf-8" standalone="no"?>
<!DOCTYPE svg PUBLIC "-//W3C//DTD SVG 1.1//EN"
  "http://www.w3.org/Graphics/SVG/1.1/DTD/svg11.dtd">
<svg height="360pt" version="1.1" viewBox="0 0 360 360" width="360pt" xmlns="http://www.w3.org/2000/svg" xmlns:xlink="http://www.w3.org/1999/xlink">
 <metadata>
  <rdf:RDF xmlns:cc="http://creativecommons.org/ns#" xmlns:dc="http://purl.org/dc/elements/1.1/" xmlns:rdf="http://www.w3.org/1999/02/22-rdf-syntax-ns#">
   <cc:Work>
    <dc:type rdf:resource="http://purl.org/dc/dcmitype/StillImage"/>
    <dc:date>2021-10-27T17:53:34.364562</dc:date>
    <dc:format>image/svg+xml</dc:format>
    <dc:creator>
     <cc:Agent>
      <dc:title>Matplotlib v3.4.3, https://matplotlib.org/</dc:title>
     </cc:Agent>
    </dc:creator>
   </cc:Work>
  </rdf:RDF>
 </metadata>
 <defs>
  <style type="text/css">*{stroke-linecap:butt;stroke-linejoin:round;}</style>
 </defs>
 <g id="figure_1">
  <g id="patch_1">
   <path d="M 0 360 
L 360 360 
L 360 0 
L 0 0 
z
" style="fill:none;"/>
  </g>
  <g id="axes_1">
   <g id="patch_2">
    <path d="M 90.5825 300.82525 
L 347.04 300.82525 
L 347.04 12.96 
L 90.5825 12.96 
z
" style="fill:#ffffff;"/>
   </g>
   <g id="matplotlib.axis_1">
    <g id="xtick_1">
     <g id="line2d_1">
      <path clip-path="url(#pad22458a7d)" d="M 118.865367 300.82525 
L 118.865367 12.96 
" style="fill:none;stroke:#b0b0b0;stroke-linecap:square;stroke-opacity:0.25;stroke-width:0.8;"/>
     </g>
     <g id="line2d_2">
      <defs>
       <path d="M 0 0 
L 0 3.5 
" id="mb426f3050f" style="stroke:#000000;stroke-width:0.8;"/>
      </defs>
      <g>
       <use style="stroke:#000000;stroke-width:0.8;" x="118.865367" xlink:href="#mb426f3050f" y="300.82525"/>
      </g>
     </g>
     <g id="text_1">
      <!-- Strongly -->
      <g transform="translate(96.855679 316.560875)scale(0.12 -0.12)">
       <defs>
        <path d="M 288 1472 
L 859 1522 
Q 900 1178 1048 958 
Q 1197 738 1509 602 
Q 1822 466 2213 466 
Q 2559 466 2825 569 
Q 3091 672 3220 851 
Q 3350 1031 3350 1244 
Q 3350 1459 3225 1620 
Q 3100 1781 2813 1891 
Q 2628 1963 1997 2114 
Q 1366 2266 1113 2400 
Q 784 2572 623 2826 
Q 463 3081 463 3397 
Q 463 3744 659 4045 
Q 856 4347 1234 4503 
Q 1613 4659 2075 4659 
Q 2584 4659 2973 4495 
Q 3363 4331 3572 4012 
Q 3781 3694 3797 3291 
L 3216 3247 
Q 3169 3681 2898 3903 
Q 2628 4125 2100 4125 
Q 1550 4125 1298 3923 
Q 1047 3722 1047 3438 
Q 1047 3191 1225 3031 
Q 1400 2872 2139 2705 
Q 2878 2538 3153 2413 
Q 3553 2228 3743 1945 
Q 3934 1663 3934 1294 
Q 3934 928 3725 604 
Q 3516 281 3123 101 
Q 2731 -78 2241 -78 
Q 1619 -78 1198 103 
Q 778 284 539 648 
Q 300 1013 288 1472 
z
" id="ArialMT-53" transform="scale(0.015625)"/>
        <path d="M 1650 503 
L 1731 6 
Q 1494 -44 1306 -44 
Q 1000 -44 831 53 
Q 663 150 594 308 
Q 525 466 525 972 
L 525 2881 
L 113 2881 
L 113 3319 
L 525 3319 
L 525 4141 
L 1084 4478 
L 1084 3319 
L 1650 3319 
L 1650 2881 
L 1084 2881 
L 1084 941 
Q 1084 700 1114 631 
Q 1144 563 1211 522 
Q 1278 481 1403 481 
Q 1497 481 1650 503 
z
" id="ArialMT-74" transform="scale(0.015625)"/>
        <path d="M 416 0 
L 416 3319 
L 922 3319 
L 922 2816 
Q 1116 3169 1280 3281 
Q 1444 3394 1641 3394 
Q 1925 3394 2219 3213 
L 2025 2691 
Q 1819 2813 1613 2813 
Q 1428 2813 1281 2702 
Q 1134 2591 1072 2394 
Q 978 2094 978 1738 
L 978 0 
L 416 0 
z
" id="ArialMT-72" transform="scale(0.015625)"/>
        <path d="M 213 1659 
Q 213 2581 725 3025 
Q 1153 3394 1769 3394 
Q 2453 3394 2887 2945 
Q 3322 2497 3322 1706 
Q 3322 1066 3130 698 
Q 2938 331 2570 128 
Q 2203 -75 1769 -75 
Q 1072 -75 642 372 
Q 213 819 213 1659 
z
M 791 1659 
Q 791 1022 1069 705 
Q 1347 388 1769 388 
Q 2188 388 2466 706 
Q 2744 1025 2744 1678 
Q 2744 2294 2464 2611 
Q 2184 2928 1769 2928 
Q 1347 2928 1069 2612 
Q 791 2297 791 1659 
z
" id="ArialMT-6f" transform="scale(0.015625)"/>
        <path d="M 422 0 
L 422 3319 
L 928 3319 
L 928 2847 
Q 1294 3394 1984 3394 
Q 2284 3394 2536 3286 
Q 2788 3178 2913 3003 
Q 3038 2828 3088 2588 
Q 3119 2431 3119 2041 
L 3119 0 
L 2556 0 
L 2556 2019 
Q 2556 2363 2490 2533 
Q 2425 2703 2258 2804 
Q 2091 2906 1866 2906 
Q 1506 2906 1245 2678 
Q 984 2450 984 1813 
L 984 0 
L 422 0 
z
" id="ArialMT-6e" transform="scale(0.015625)"/>
        <path d="M 319 -275 
L 866 -356 
Q 900 -609 1056 -725 
Q 1266 -881 1628 -881 
Q 2019 -881 2231 -725 
Q 2444 -569 2519 -288 
Q 2563 -116 2559 434 
Q 2191 0 1641 0 
Q 956 0 581 494 
Q 206 988 206 1678 
Q 206 2153 378 2554 
Q 550 2956 876 3175 
Q 1203 3394 1644 3394 
Q 2231 3394 2613 2919 
L 2613 3319 
L 3131 3319 
L 3131 450 
Q 3131 -325 2973 -648 
Q 2816 -972 2473 -1159 
Q 2131 -1347 1631 -1347 
Q 1038 -1347 672 -1080 
Q 306 -813 319 -275 
z
M 784 1719 
Q 784 1066 1043 766 
Q 1303 466 1694 466 
Q 2081 466 2343 764 
Q 2606 1063 2606 1700 
Q 2606 2309 2336 2618 
Q 2066 2928 1684 2928 
Q 1309 2928 1046 2623 
Q 784 2319 784 1719 
z
" id="ArialMT-67" transform="scale(0.015625)"/>
        <path d="M 409 0 
L 409 4581 
L 972 4581 
L 972 0 
L 409 0 
z
" id="ArialMT-6c" transform="scale(0.015625)"/>
        <path d="M 397 -1278 
L 334 -750 
Q 519 -800 656 -800 
Q 844 -800 956 -737 
Q 1069 -675 1141 -563 
Q 1194 -478 1313 -144 
Q 1328 -97 1363 -6 
L 103 3319 
L 709 3319 
L 1400 1397 
Q 1534 1031 1641 628 
Q 1738 1016 1872 1384 
L 2581 3319 
L 3144 3319 
L 1881 -56 
Q 1678 -603 1566 -809 
Q 1416 -1088 1222 -1217 
Q 1028 -1347 759 -1347 
Q 597 -1347 397 -1278 
z
" id="ArialMT-79" transform="scale(0.015625)"/>
       </defs>
       <use xlink:href="#ArialMT-53"/>
       <use x="66.699219" xlink:href="#ArialMT-74"/>
       <use x="94.482422" xlink:href="#ArialMT-72"/>
       <use x="127.783203" xlink:href="#ArialMT-6f"/>
       <use x="183.398438" xlink:href="#ArialMT-6e"/>
       <use x="239.013672" xlink:href="#ArialMT-67"/>
       <use x="294.628906" xlink:href="#ArialMT-6c"/>
       <use x="316.845703" xlink:href="#ArialMT-79"/>
      </g>
      <!-- critical -->
      <g transform="translate(101.864742 329.39375)scale(0.12 -0.12)">
       <defs>
        <path d="M 2588 1216 
L 3141 1144 
Q 3050 572 2676 248 
Q 2303 -75 1759 -75 
Q 1078 -75 664 370 
Q 250 816 250 1647 
Q 250 2184 428 2587 
Q 606 2991 970 3192 
Q 1334 3394 1763 3394 
Q 2303 3394 2647 3120 
Q 2991 2847 3088 2344 
L 2541 2259 
Q 2463 2594 2264 2762 
Q 2066 2931 1784 2931 
Q 1359 2931 1093 2626 
Q 828 2322 828 1663 
Q 828 994 1084 691 
Q 1341 388 1753 388 
Q 2084 388 2306 591 
Q 2528 794 2588 1216 
z
" id="ArialMT-63" transform="scale(0.015625)"/>
        <path d="M 425 3934 
L 425 4581 
L 988 4581 
L 988 3934 
L 425 3934 
z
M 425 0 
L 425 3319 
L 988 3319 
L 988 0 
L 425 0 
z
" id="ArialMT-69" transform="scale(0.015625)"/>
        <path d="M 2588 409 
Q 2275 144 1986 34 
Q 1697 -75 1366 -75 
Q 819 -75 525 192 
Q 231 459 231 875 
Q 231 1119 342 1320 
Q 453 1522 633 1644 
Q 813 1766 1038 1828 
Q 1203 1872 1538 1913 
Q 2219 1994 2541 2106 
Q 2544 2222 2544 2253 
Q 2544 2597 2384 2738 
Q 2169 2928 1744 2928 
Q 1347 2928 1158 2789 
Q 969 2650 878 2297 
L 328 2372 
Q 403 2725 575 2942 
Q 747 3159 1072 3276 
Q 1397 3394 1825 3394 
Q 2250 3394 2515 3294 
Q 2781 3194 2906 3042 
Q 3031 2891 3081 2659 
Q 3109 2516 3109 2141 
L 3109 1391 
Q 3109 606 3145 398 
Q 3181 191 3288 0 
L 2700 0 
Q 2613 175 2588 409 
z
M 2541 1666 
Q 2234 1541 1622 1453 
Q 1275 1403 1131 1340 
Q 988 1278 909 1158 
Q 831 1038 831 891 
Q 831 666 1001 516 
Q 1172 366 1500 366 
Q 1825 366 2078 508 
Q 2331 650 2450 897 
Q 2541 1088 2541 1459 
L 2541 1666 
z
" id="ArialMT-61" transform="scale(0.015625)"/>
       </defs>
       <use xlink:href="#ArialMT-63"/>
       <use x="50" xlink:href="#ArialMT-72"/>
       <use x="83.300781" xlink:href="#ArialMT-69"/>
       <use x="105.517578" xlink:href="#ArialMT-74"/>
       <use x="133.300781" xlink:href="#ArialMT-69"/>
       <use x="155.517578" xlink:href="#ArialMT-63"/>
       <use x="205.517578" xlink:href="#ArialMT-61"/>
       <use x="261.132812" xlink:href="#ArialMT-6c"/>
      </g>
     </g>
    </g>
    <g id="xtick_2">
     <g id="line2d_3">
      <path clip-path="url(#pad22458a7d)" d="M 168.838308 300.82525 
L 168.838308 12.96 
" style="fill:none;stroke:#b0b0b0;stroke-linecap:square;stroke-opacity:0.25;stroke-width:0.8;"/>
     </g>
     <g id="line2d_4">
      <g>
       <use style="stroke:#000000;stroke-width:0.8;" x="168.838308" xlink:href="#mb426f3050f" y="300.82525"/>
      </g>
     </g>
    </g>
    <g id="xtick_3">
     <g id="line2d_5">
      <path clip-path="url(#pad22458a7d)" d="M 218.81125 300.82525 
L 218.81125 12.96 
" style="fill:none;stroke:#b0b0b0;stroke-linecap:square;stroke-opacity:0.25;stroke-width:0.8;"/>
     </g>
     <g id="line2d_6">
      <g>
       <use style="stroke:#000000;stroke-width:0.8;" x="218.81125" xlink:href="#mb426f3050f" y="300.82525"/>
      </g>
     </g>
    </g>
    <g id="xtick_4">
     <g id="line2d_7">
      <path clip-path="url(#pad22458a7d)" d="M 268.784192 300.82525 
L 268.784192 12.96 
" style="fill:none;stroke:#b0b0b0;stroke-linecap:square;stroke-opacity:0.25;stroke-width:0.8;"/>
     </g>
     <g id="line2d_8">
      <g>
       <use style="stroke:#000000;stroke-width:0.8;" x="268.784192" xlink:href="#mb426f3050f" y="300.82525"/>
      </g>
     </g>
    </g>
    <g id="xtick_5">
     <g id="line2d_9">
      <path clip-path="url(#pad22458a7d)" d="M 318.757133 300.82525 
L 318.757133 12.96 
" style="fill:none;stroke:#b0b0b0;stroke-linecap:square;stroke-opacity:0.25;stroke-width:0.8;"/>
     </g>
     <g id="line2d_10">
      <g>
       <use style="stroke:#000000;stroke-width:0.8;" x="318.757133" xlink:href="#mb426f3050f" y="300.82525"/>
      </g>
     </g>
     <g id="text_2">
      <!-- Strongly -->
      <g transform="translate(296.747446 316.560875)scale(0.12 -0.12)">
       <use xlink:href="#ArialMT-53"/>
       <use x="66.699219" xlink:href="#ArialMT-74"/>
       <use x="94.482422" xlink:href="#ArialMT-72"/>
       <use x="127.783203" xlink:href="#ArialMT-6f"/>
       <use x="183.398438" xlink:href="#ArialMT-6e"/>
       <use x="239.013672" xlink:href="#ArialMT-67"/>
       <use x="294.628906" xlink:href="#ArialMT-6c"/>
       <use x="316.845703" xlink:href="#ArialMT-79"/>
      </g>
      <!-- supportive -->
      <g transform="translate(291.076508 329.39375)scale(0.12 -0.12)">
       <defs>
        <path d="M 197 991 
L 753 1078 
Q 800 744 1014 566 
Q 1228 388 1613 388 
Q 2000 388 2187 545 
Q 2375 703 2375 916 
Q 2375 1106 2209 1216 
Q 2094 1291 1634 1406 
Q 1016 1563 777 1677 
Q 538 1791 414 1992 
Q 291 2194 291 2438 
Q 291 2659 392 2848 
Q 494 3038 669 3163 
Q 800 3259 1026 3326 
Q 1253 3394 1513 3394 
Q 1903 3394 2198 3281 
Q 2494 3169 2634 2976 
Q 2775 2784 2828 2463 
L 2278 2388 
Q 2241 2644 2061 2787 
Q 1881 2931 1553 2931 
Q 1166 2931 1000 2803 
Q 834 2675 834 2503 
Q 834 2394 903 2306 
Q 972 2216 1119 2156 
Q 1203 2125 1616 2013 
Q 2213 1853 2448 1751 
Q 2684 1650 2818 1456 
Q 2953 1263 2953 975 
Q 2953 694 2789 445 
Q 2625 197 2315 61 
Q 2006 -75 1616 -75 
Q 969 -75 630 194 
Q 291 463 197 991 
z
" id="ArialMT-73" transform="scale(0.015625)"/>
        <path d="M 2597 0 
L 2597 488 
Q 2209 -75 1544 -75 
Q 1250 -75 995 37 
Q 741 150 617 320 
Q 494 491 444 738 
Q 409 903 409 1263 
L 409 3319 
L 972 3319 
L 972 1478 
Q 972 1038 1006 884 
Q 1059 663 1231 536 
Q 1403 409 1656 409 
Q 1909 409 2131 539 
Q 2353 669 2445 892 
Q 2538 1116 2538 1541 
L 2538 3319 
L 3100 3319 
L 3100 0 
L 2597 0 
z
" id="ArialMT-75" transform="scale(0.015625)"/>
        <path d="M 422 -1272 
L 422 3319 
L 934 3319 
L 934 2888 
Q 1116 3141 1344 3267 
Q 1572 3394 1897 3394 
Q 2322 3394 2647 3175 
Q 2972 2956 3137 2557 
Q 3303 2159 3303 1684 
Q 3303 1175 3120 767 
Q 2938 359 2589 142 
Q 2241 -75 1856 -75 
Q 1575 -75 1351 44 
Q 1128 163 984 344 
L 984 -1272 
L 422 -1272 
z
M 931 1641 
Q 931 1000 1190 694 
Q 1450 388 1819 388 
Q 2194 388 2461 705 
Q 2728 1022 2728 1688 
Q 2728 2322 2467 2637 
Q 2206 2953 1844 2953 
Q 1484 2953 1207 2617 
Q 931 2281 931 1641 
z
" id="ArialMT-70" transform="scale(0.015625)"/>
        <path d="M 1344 0 
L 81 3319 
L 675 3319 
L 1388 1331 
Q 1503 1009 1600 663 
Q 1675 925 1809 1294 
L 2547 3319 
L 3125 3319 
L 1869 0 
L 1344 0 
z
" id="ArialMT-76" transform="scale(0.015625)"/>
        <path d="M 2694 1069 
L 3275 997 
Q 3138 488 2766 206 
Q 2394 -75 1816 -75 
Q 1088 -75 661 373 
Q 234 822 234 1631 
Q 234 2469 665 2931 
Q 1097 3394 1784 3394 
Q 2450 3394 2872 2941 
Q 3294 2488 3294 1666 
Q 3294 1616 3291 1516 
L 816 1516 
Q 847 969 1125 678 
Q 1403 388 1819 388 
Q 2128 388 2347 550 
Q 2566 713 2694 1069 
z
M 847 1978 
L 2700 1978 
Q 2663 2397 2488 2606 
Q 2219 2931 1791 2931 
Q 1403 2931 1139 2672 
Q 875 2413 847 1978 
z
" id="ArialMT-65" transform="scale(0.015625)"/>
       </defs>
       <use xlink:href="#ArialMT-73"/>
       <use x="50" xlink:href="#ArialMT-75"/>
       <use x="105.615234" xlink:href="#ArialMT-70"/>
       <use x="161.230469" xlink:href="#ArialMT-70"/>
       <use x="216.845703" xlink:href="#ArialMT-6f"/>
       <use x="272.460938" xlink:href="#ArialMT-72"/>
       <use x="305.761719" xlink:href="#ArialMT-74"/>
       <use x="333.544922" xlink:href="#ArialMT-69"/>
       <use x="355.761719" xlink:href="#ArialMT-76"/>
       <use x="405.761719" xlink:href="#ArialMT-65"/>
      </g>
     </g>
    </g>
    <g id="text_3">
     <!-- Social bonding -->
     <g transform="translate(175.815625 344.514375)scale(0.12 -0.12)">
      <defs>
       <path d="M 231 1491 
L 1131 1578 
Q 1213 1125 1461 912 
Q 1709 700 2131 700 
Q 2578 700 2804 889 
Q 3031 1078 3031 1331 
Q 3031 1494 2936 1608 
Q 2841 1722 2603 1806 
Q 2441 1863 1863 2006 
Q 1119 2191 819 2459 
Q 397 2838 397 3381 
Q 397 3731 595 4036 
Q 794 4341 1167 4500 
Q 1541 4659 2069 4659 
Q 2931 4659 3367 4281 
Q 3803 3903 3825 3272 
L 2900 3231 
Q 2841 3584 2645 3739 
Q 2450 3894 2059 3894 
Q 1656 3894 1428 3728 
Q 1281 3622 1281 3444 
Q 1281 3281 1419 3166 
Q 1594 3019 2269 2859 
Q 2944 2700 3267 2529 
Q 3591 2359 3773 2064 
Q 3956 1769 3956 1334 
Q 3956 941 3737 597 
Q 3519 253 3119 86 
Q 2719 -81 2122 -81 
Q 1253 -81 787 320 
Q 322 722 231 1491 
z
" id="Arial-BoldMT-53" transform="scale(0.015625)"/>
       <path d="M 256 1706 
Q 256 2144 472 2553 
Q 688 2963 1083 3178 
Q 1478 3394 1966 3394 
Q 2719 3394 3200 2905 
Q 3681 2416 3681 1669 
Q 3681 916 3195 420 
Q 2709 -75 1972 -75 
Q 1516 -75 1102 131 
Q 688 338 472 736 
Q 256 1134 256 1706 
z
M 1156 1659 
Q 1156 1166 1390 903 
Q 1625 641 1969 641 
Q 2313 641 2545 903 
Q 2778 1166 2778 1666 
Q 2778 2153 2545 2415 
Q 2313 2678 1969 2678 
Q 1625 2678 1390 2415 
Q 1156 2153 1156 1659 
z
" id="Arial-BoldMT-6f" transform="scale(0.015625)"/>
       <path d="M 3353 2338 
L 2488 2181 
Q 2444 2441 2289 2572 
Q 2134 2703 1888 2703 
Q 1559 2703 1364 2476 
Q 1169 2250 1169 1719 
Q 1169 1128 1367 884 
Q 1566 641 1900 641 
Q 2150 641 2309 783 
Q 2469 925 2534 1272 
L 3397 1125 
Q 3263 531 2881 228 
Q 2500 -75 1859 -75 
Q 1131 -75 698 384 
Q 266 844 266 1656 
Q 266 2478 700 2936 
Q 1134 3394 1875 3394 
Q 2481 3394 2839 3133 
Q 3197 2872 3353 2338 
z
" id="Arial-BoldMT-63" transform="scale(0.015625)"/>
       <path d="M 459 3769 
L 459 4581 
L 1338 4581 
L 1338 3769 
L 459 3769 
z
M 459 0 
L 459 3319 
L 1338 3319 
L 1338 0 
L 459 0 
z
" id="Arial-BoldMT-69" transform="scale(0.015625)"/>
       <path d="M 1116 2306 
L 319 2450 
Q 453 2931 781 3162 
Q 1109 3394 1756 3394 
Q 2344 3394 2631 3255 
Q 2919 3116 3036 2902 
Q 3153 2688 3153 2116 
L 3144 1091 
Q 3144 653 3186 445 
Q 3228 238 3344 0 
L 2475 0 
Q 2441 88 2391 259 
Q 2369 338 2359 363 
Q 2134 144 1878 34 
Q 1622 -75 1331 -75 
Q 819 -75 523 203 
Q 228 481 228 906 
Q 228 1188 362 1408 
Q 497 1628 739 1745 
Q 981 1863 1438 1950 
Q 2053 2066 2291 2166 
L 2291 2253 
Q 2291 2506 2166 2614 
Q 2041 2722 1694 2722 
Q 1459 2722 1328 2630 
Q 1197 2538 1116 2306 
z
M 2291 1594 
Q 2122 1538 1756 1459 
Q 1391 1381 1278 1306 
Q 1106 1184 1106 997 
Q 1106 813 1243 678 
Q 1381 544 1594 544 
Q 1831 544 2047 700 
Q 2206 819 2256 991 
Q 2291 1103 2291 1419 
L 2291 1594 
z
" id="Arial-BoldMT-61" transform="scale(0.015625)"/>
       <path d="M 459 0 
L 459 4581 
L 1338 4581 
L 1338 0 
L 459 0 
z
" id="Arial-BoldMT-6c" transform="scale(0.015625)"/>
       <path id="Arial-BoldMT-20" transform="scale(0.015625)"/>
       <path d="M 422 0 
L 422 4581 
L 1300 4581 
L 1300 2931 
Q 1706 3394 2263 3394 
Q 2869 3394 3266 2955 
Q 3663 2516 3663 1694 
Q 3663 844 3258 384 
Q 2853 -75 2275 -75 
Q 1991 -75 1714 67 
Q 1438 209 1238 488 
L 1238 0 
L 422 0 
z
M 1294 1731 
Q 1294 1216 1456 969 
Q 1684 619 2063 619 
Q 2353 619 2558 867 
Q 2763 1116 2763 1650 
Q 2763 2219 2556 2470 
Q 2350 2722 2028 2722 
Q 1713 2722 1503 2476 
Q 1294 2231 1294 1731 
z
" id="Arial-BoldMT-62" transform="scale(0.015625)"/>
       <path d="M 3478 0 
L 2600 0 
L 2600 1694 
Q 2600 2231 2544 2389 
Q 2488 2547 2361 2634 
Q 2234 2722 2056 2722 
Q 1828 2722 1647 2597 
Q 1466 2472 1398 2265 
Q 1331 2059 1331 1503 
L 1331 0 
L 453 0 
L 453 3319 
L 1269 3319 
L 1269 2831 
Q 1703 3394 2363 3394 
Q 2653 3394 2893 3289 
Q 3134 3184 3257 3021 
Q 3381 2859 3429 2653 
Q 3478 2447 3478 2063 
L 3478 0 
z
" id="Arial-BoldMT-6e" transform="scale(0.015625)"/>
       <path d="M 3503 0 
L 2688 0 
L 2688 488 
Q 2484 203 2207 64 
Q 1931 -75 1650 -75 
Q 1078 -75 670 386 
Q 263 847 263 1672 
Q 263 2516 659 2955 
Q 1056 3394 1663 3394 
Q 2219 3394 2625 2931 
L 2625 4581 
L 3503 4581 
L 3503 0 
z
M 1159 1731 
Q 1159 1200 1306 963 
Q 1519 619 1900 619 
Q 2203 619 2415 876 
Q 2628 1134 2628 1647 
Q 2628 2219 2422 2470 
Q 2216 2722 1894 2722 
Q 1581 2722 1370 2473 
Q 1159 2225 1159 1731 
z
" id="Arial-BoldMT-64" transform="scale(0.015625)"/>
       <path d="M 378 -219 
L 1381 -341 
Q 1406 -516 1497 -581 
Q 1622 -675 1891 -675 
Q 2234 -675 2406 -572 
Q 2522 -503 2581 -350 
Q 2622 -241 2622 53 
L 2622 538 
Q 2228 0 1628 0 
Q 959 0 569 566 
Q 263 1013 263 1678 
Q 263 2513 664 2953 
Q 1066 3394 1663 3394 
Q 2278 3394 2678 2853 
L 2678 3319 
L 3500 3319 
L 3500 341 
Q 3500 -247 3403 -537 
Q 3306 -828 3131 -993 
Q 2956 -1159 2664 -1253 
Q 2372 -1347 1925 -1347 
Q 1081 -1347 728 -1058 
Q 375 -769 375 -325 
Q 375 -281 378 -219 
z
M 1163 1728 
Q 1163 1200 1367 954 
Q 1572 709 1872 709 
Q 2194 709 2416 961 
Q 2638 1213 2638 1706 
Q 2638 2222 2425 2472 
Q 2213 2722 1888 2722 
Q 1572 2722 1367 2476 
Q 1163 2231 1163 1728 
z
" id="Arial-BoldMT-67" transform="scale(0.015625)"/>
      </defs>
      <use xlink:href="#Arial-BoldMT-53"/>
      <use x="66.699219" xlink:href="#Arial-BoldMT-6f"/>
      <use x="127.783203" xlink:href="#Arial-BoldMT-63"/>
      <use x="183.398438" xlink:href="#Arial-BoldMT-69"/>
      <use x="211.181641" xlink:href="#Arial-BoldMT-61"/>
      <use x="266.796875" xlink:href="#Arial-BoldMT-6c"/>
      <use x="294.580078" xlink:href="#Arial-BoldMT-20"/>
      <use x="322.363281" xlink:href="#Arial-BoldMT-62"/>
      <use x="383.447266" xlink:href="#Arial-BoldMT-6f"/>
      <use x="444.53125" xlink:href="#Arial-BoldMT-6e"/>
      <use x="505.615234" xlink:href="#Arial-BoldMT-64"/>
      <use x="566.699219" xlink:href="#Arial-BoldMT-69"/>
      <use x="594.482422" xlink:href="#Arial-BoldMT-6e"/>
      <use x="655.566406" xlink:href="#Arial-BoldMT-67"/>
     </g>
    </g>
   </g>
   <g id="matplotlib.axis_2">
    <g id="ytick_1">
     <g id="line2d_11">
      <path clip-path="url(#pad22458a7d)" d="M 90.5825 256.838508 
L 347.04 256.838508 
" style="fill:none;stroke:#b0b0b0;stroke-linecap:square;stroke-opacity:0.25;stroke-width:0.8;"/>
     </g>
     <g id="line2d_12">
      <defs>
       <path d="M 0 0 
L -3.5 0 
" id="m52b63060db" style="stroke:#000000;stroke-width:0.8;"/>
      </defs>
      <g>
       <use style="stroke:#000000;stroke-width:0.8;" x="90.5825" xlink:href="#m52b63060db" y="256.838508"/>
      </g>
     </g>
     <g id="text_4">
      <!-- Strongly -->
      <g transform="translate(39.563125 255.648821)scale(0.12 -0.12)">
       <use xlink:href="#ArialMT-53"/>
       <use x="66.699219" xlink:href="#ArialMT-74"/>
       <use x="94.482422" xlink:href="#ArialMT-72"/>
       <use x="127.783203" xlink:href="#ArialMT-6f"/>
       <use x="183.398438" xlink:href="#ArialMT-6e"/>
       <use x="239.013672" xlink:href="#ArialMT-67"/>
       <use x="294.628906" xlink:href="#ArialMT-6c"/>
       <use x="316.845703" xlink:href="#ArialMT-79"/>
      </g>
      <!-- critical -->
      <g transform="translate(49.58125 268.481696)scale(0.12 -0.12)">
       <use xlink:href="#ArialMT-63"/>
       <use x="50" xlink:href="#ArialMT-72"/>
       <use x="83.300781" xlink:href="#ArialMT-69"/>
       <use x="105.517578" xlink:href="#ArialMT-74"/>
       <use x="133.300781" xlink:href="#ArialMT-69"/>
       <use x="155.517578" xlink:href="#ArialMT-63"/>
       <use x="205.517578" xlink:href="#ArialMT-61"/>
       <use x="261.132812" xlink:href="#ArialMT-6c"/>
      </g>
     </g>
    </g>
    <g id="ytick_2">
     <g id="line2d_13">
      <path clip-path="url(#pad22458a7d)" d="M 90.5825 206.865567 
L 347.04 206.865567 
" style="fill:none;stroke:#b0b0b0;stroke-linecap:square;stroke-opacity:0.25;stroke-width:0.8;"/>
     </g>
     <g id="line2d_14">
      <g>
       <use style="stroke:#000000;stroke-width:0.8;" x="90.5825" xlink:href="#m52b63060db" y="206.865567"/>
      </g>
     </g>
    </g>
    <g id="ytick_3">
     <g id="line2d_15">
      <path clip-path="url(#pad22458a7d)" d="M 90.5825 156.892625 
L 347.04 156.892625 
" style="fill:none;stroke:#b0b0b0;stroke-linecap:square;stroke-opacity:0.25;stroke-width:0.8;"/>
     </g>
     <g id="line2d_16">
      <g>
       <use style="stroke:#000000;stroke-width:0.8;" x="90.5825" xlink:href="#m52b63060db" y="156.892625"/>
      </g>
     </g>
    </g>
    <g id="ytick_4">
     <g id="line2d_17">
      <path clip-path="url(#pad22458a7d)" d="M 90.5825 106.919683 
L 347.04 106.919683 
" style="fill:none;stroke:#b0b0b0;stroke-linecap:square;stroke-opacity:0.25;stroke-width:0.8;"/>
     </g>
     <g id="line2d_18">
      <g>
       <use style="stroke:#000000;stroke-width:0.8;" x="90.5825" xlink:href="#m52b63060db" y="106.919683"/>
      </g>
     </g>
    </g>
    <g id="ytick_5">
     <g id="line2d_19">
      <path clip-path="url(#pad22458a7d)" d="M 90.5825 56.946742 
L 347.04 56.946742 
" style="fill:none;stroke:#b0b0b0;stroke-linecap:square;stroke-opacity:0.25;stroke-width:0.8;"/>
     </g>
     <g id="line2d_20">
      <g>
       <use style="stroke:#000000;stroke-width:0.8;" x="90.5825" xlink:href="#m52b63060db" y="56.946742"/>
      </g>
     </g>
     <g id="text_5">
      <!-- Strongly -->
      <g transform="translate(39.563125 55.757054)scale(0.12 -0.12)">
       <use xlink:href="#ArialMT-53"/>
       <use x="66.699219" xlink:href="#ArialMT-74"/>
       <use x="94.482422" xlink:href="#ArialMT-72"/>
       <use x="127.783203" xlink:href="#ArialMT-6f"/>
       <use x="183.398438" xlink:href="#ArialMT-6e"/>
       <use x="239.013672" xlink:href="#ArialMT-67"/>
       <use x="294.628906" xlink:href="#ArialMT-6c"/>
       <use x="316.845703" xlink:href="#ArialMT-79"/>
      </g>
      <!-- supportive -->
      <g transform="translate(28.22125 68.589929)scale(0.12 -0.12)">
       <use xlink:href="#ArialMT-73"/>
       <use x="50" xlink:href="#ArialMT-75"/>
       <use x="105.615234" xlink:href="#ArialMT-70"/>
       <use x="161.230469" xlink:href="#ArialMT-70"/>
       <use x="216.845703" xlink:href="#ArialMT-6f"/>
       <use x="272.460938" xlink:href="#ArialMT-72"/>
       <use x="305.761719" xlink:href="#ArialMT-74"/>
       <use x="333.544922" xlink:href="#ArialMT-69"/>
       <use x="355.761719" xlink:href="#ArialMT-76"/>
       <use x="405.761719" xlink:href="#ArialMT-65"/>
      </g>
     </g>
    </g>
    <g id="text_6">
     <!-- Credible signaling -->
     <g transform="translate(21.695625 208.896688)rotate(-90)scale(0.12 -0.12)">
      <defs>
       <path d="M 3397 1684 
L 4294 1400 
Q 4088 650 3608 286 
Q 3128 -78 2391 -78 
Q 1478 -78 890 545 
Q 303 1169 303 2250 
Q 303 3394 893 4026 
Q 1484 4659 2447 4659 
Q 3288 4659 3813 4163 
Q 4125 3869 4281 3319 
L 3366 3100 
Q 3284 3456 3026 3662 
Q 2769 3869 2400 3869 
Q 1891 3869 1573 3503 
Q 1256 3138 1256 2319 
Q 1256 1450 1568 1081 
Q 1881 713 2381 713 
Q 2750 713 3015 947 
Q 3281 1181 3397 1684 
z
" id="Arial-BoldMT-43" transform="scale(0.015625)"/>
       <path d="M 1300 0 
L 422 0 
L 422 3319 
L 1238 3319 
L 1238 2847 
Q 1447 3181 1614 3287 
Q 1781 3394 1994 3394 
Q 2294 3394 2572 3228 
L 2300 2463 
Q 2078 2606 1888 2606 
Q 1703 2606 1575 2504 
Q 1447 2403 1373 2137 
Q 1300 1872 1300 1025 
L 1300 0 
z
" id="Arial-BoldMT-72" transform="scale(0.015625)"/>
       <path d="M 2381 1056 
L 3256 909 
Q 3088 428 2723 176 
Q 2359 -75 1813 -75 
Q 947 -75 531 491 
Q 203 944 203 1634 
Q 203 2459 634 2926 
Q 1066 3394 1725 3394 
Q 2466 3394 2894 2905 
Q 3322 2416 3303 1406 
L 1103 1406 
Q 1113 1016 1316 798 
Q 1519 581 1822 581 
Q 2028 581 2168 693 
Q 2309 806 2381 1056 
z
M 2431 1944 
Q 2422 2325 2234 2523 
Q 2047 2722 1778 2722 
Q 1491 2722 1303 2513 
Q 1116 2303 1119 1944 
L 2431 1944 
z
" id="Arial-BoldMT-65" transform="scale(0.015625)"/>
       <path d="M 150 947 
L 1031 1081 
Q 1088 825 1259 692 
Q 1431 559 1741 559 
Q 2081 559 2253 684 
Q 2369 772 2369 919 
Q 2369 1019 2306 1084 
Q 2241 1147 2013 1200 
Q 950 1434 666 1628 
Q 272 1897 272 2375 
Q 272 2806 612 3100 
Q 953 3394 1669 3394 
Q 2350 3394 2681 3172 
Q 3013 2950 3138 2516 
L 2309 2363 
Q 2256 2556 2107 2659 
Q 1959 2763 1684 2763 
Q 1338 2763 1188 2666 
Q 1088 2597 1088 2488 
Q 1088 2394 1175 2328 
Q 1294 2241 1995 2081 
Q 2697 1922 2975 1691 
Q 3250 1456 3250 1038 
Q 3250 581 2869 253 
Q 2488 -75 1741 -75 
Q 1063 -75 667 200 
Q 272 475 150 947 
z
" id="Arial-BoldMT-73" transform="scale(0.015625)"/>
      </defs>
      <use xlink:href="#Arial-BoldMT-43"/>
      <use x="72.216797" xlink:href="#Arial-BoldMT-72"/>
      <use x="111.132812" xlink:href="#Arial-BoldMT-65"/>
      <use x="166.748047" xlink:href="#Arial-BoldMT-64"/>
      <use x="227.832031" xlink:href="#Arial-BoldMT-69"/>
      <use x="255.615234" xlink:href="#Arial-BoldMT-62"/>
      <use x="316.699219" xlink:href="#Arial-BoldMT-6c"/>
      <use x="344.482422" xlink:href="#Arial-BoldMT-65"/>
      <use x="400.097656" xlink:href="#Arial-BoldMT-20"/>
      <use x="427.880859" xlink:href="#Arial-BoldMT-73"/>
      <use x="483.496094" xlink:href="#Arial-BoldMT-69"/>
      <use x="511.279297" xlink:href="#Arial-BoldMT-67"/>
      <use x="572.363281" xlink:href="#Arial-BoldMT-6e"/>
      <use x="633.447266" xlink:href="#Arial-BoldMT-61"/>
      <use x="689.0625" xlink:href="#Arial-BoldMT-6c"/>
      <use x="716.845703" xlink:href="#Arial-BoldMT-69"/>
      <use x="744.628906" xlink:href="#Arial-BoldMT-6e"/>
      <use x="805.712891" xlink:href="#Arial-BoldMT-67"/>
     </g>
    </g>
   </g>
   <g id="PathCollection_1">
    <defs>
     <path d="M 0 1.118034 
C 0.296506 1.118034 0.580908 1.000231 0.790569 0.790569 
C 1.000231 0.580908 1.118034 0.296506 1.118034 0 
C 1.118034 -0.296506 1.000231 -0.580908 0.790569 -0.790569 
C 0.580908 -1.000231 0.296506 -1.118034 0 -1.118034 
C -0.296506 -1.118034 -0.580908 -1.000231 -0.790569 -0.790569 
C -1.000231 -0.580908 -1.118034 -0.296506 -1.118034 0 
C -1.118034 0.296506 -1.000231 0.580908 -0.790569 0.790569 
C -0.580908 1.000231 -0.296506 1.118034 0 1.118034 
z
" id="m3a5043f688" style="stroke:#d62728;"/>
    </defs>
    <g clip-path="url(#pad22458a7d)">
     <use style="fill:#d62728;stroke:#d62728;" x="118.865367" xlink:href="#m3a5043f688" y="256.838508"/>
    </g>
   </g>
   <g id="PathCollection_2">
    <defs>
     <path d="M 0 8.732125 
C 2.315787 8.732125 4.537036 7.812053 6.174545 6.174545 
C 7.812053 4.537036 8.732125 2.315787 8.732125 0 
C 8.732125 -2.315787 7.812053 -4.537036 6.174545 -6.174545 
C 4.537036 -7.812053 2.315787 -8.732125 0 -8.732125 
C -2.315787 -8.732125 -4.537036 -7.812053 -6.174545 -6.174545 
C -7.812053 -4.537036 -8.732125 -2.315787 -8.732125 0 
C -8.732125 2.315787 -7.812053 4.537036 -6.174545 6.174545 
C -4.537036 7.812053 -2.315787 8.732125 0 8.732125 
z
" id="mf28d33426d" style="stroke:#d62728;"/>
    </defs>
    <g clip-path="url(#pad22458a7d)">
     <use style="fill:#d62728;stroke:#d62728;" x="118.865367" xlink:href="#mf28d33426d" y="206.865567"/>
    </g>
   </g>
   <g id="PathCollection_3">
    <g clip-path="url(#pad22458a7d)">
     <use style="fill:#d62728;stroke:#d62728;" x="118.865367" xlink:href="#m3a5043f688" y="156.892625"/>
    </g>
   </g>
   <g id="PathCollection_4">
    <g clip-path="url(#pad22458a7d)">
     <use style="fill:#d62728;stroke:#d62728;" x="118.865367" xlink:href="#mf28d33426d" y="106.919683"/>
    </g>
   </g>
   <g id="PathCollection_5">
    <g clip-path="url(#pad22458a7d)">
     <use style="fill:#d62728;stroke:#d62728;" x="118.865367" xlink:href="#mf28d33426d" y="56.946742"/>
    </g>
   </g>
   <g id="PathCollection_6">
    <g clip-path="url(#pad22458a7d)">
     <use style="fill:#d62728;stroke:#d62728;" x="168.838308" xlink:href="#m3a5043f688" y="256.838508"/>
    </g>
   </g>
   <g id="PathCollection_7">
    <defs>
     <path d="M 0 12.298374 
C 3.261567 12.298374 6.389988 11.00254 8.696264 8.696264 
C 11.00254 6.389988 12.298374 3.261567 12.298374 0 
C 12.298374 -3.261567 11.00254 -6.389988 8.696264 -8.696264 
C 6.389988 -11.00254 3.261567 -12.298374 0 -12.298374 
C -3.261567 -12.298374 -6.389988 -11.00254 -8.696264 -8.696264 
C -11.00254 -6.389988 -12.298374 -3.261567 -12.298374 0 
C -12.298374 3.261567 -11.00254 6.389988 -8.696264 8.696264 
C -6.389988 11.00254 -3.261567 12.298374 0 12.298374 
z
" id="m5ba15b4b5c" style="stroke:#d62728;"/>
    </defs>
    <g clip-path="url(#pad22458a7d)">
     <use style="fill:#d62728;stroke:#d62728;" x="168.838308" xlink:href="#m5ba15b4b5c" y="206.865567"/>
    </g>
   </g>
   <g id="PathCollection_8">
    <g clip-path="url(#pad22458a7d)">
     <use style="fill:#d62728;stroke:#d62728;" x="168.838308" xlink:href="#mf28d33426d" y="156.892625"/>
    </g>
   </g>
   <g id="PathCollection_9">
    <defs>
     <path d="M 0 15.041609 
C 3.989081 15.041609 7.815317 13.45673 10.636024 10.636024 
C 13.45673 7.815317 15.041609 3.989081 15.041609 0 
C 15.041609 -3.989081 13.45673 -7.815317 10.636024 -10.636024 
C 7.815317 -13.45673 3.989081 -15.041609 0 -15.041609 
C -3.989081 -15.041609 -7.815317 -13.45673 -10.636024 -10.636024 
C -13.45673 -7.815317 -15.041609 -3.989081 -15.041609 0 
C -15.041609 3.989081 -13.45673 7.815317 -10.636024 10.636024 
C -7.815317 13.45673 -3.989081 15.041609 0 15.041609 
z
" id="m7b9de31cf0" style="stroke:#d62728;"/>
    </defs>
    <g clip-path="url(#pad22458a7d)">
     <use style="fill:#d62728;stroke:#d62728;" x="168.838308" xlink:href="#m7b9de31cf0" y="106.919683"/>
    </g>
   </g>
   <g id="PathCollection_10">
    <g clip-path="url(#pad22458a7d)">
     <use style="fill:#d62728;stroke:#d62728;" x="168.838308" xlink:href="#m3a5043f688" y="56.946742"/>
    </g>
   </g>
   <g id="PathCollection_11">
    <g clip-path="url(#pad22458a7d)">
     <use style="fill:#d62728;stroke:#d62728;" x="218.81125" xlink:href="#mf28d33426d" y="256.838508"/>
    </g>
   </g>
   <g id="PathCollection_12">
    <g clip-path="url(#pad22458a7d)">
     <use style="fill:#d62728;stroke:#d62728;" x="218.81125" xlink:href="#m7b9de31cf0" y="206.865567"/>
    </g>
   </g>
   <g id="PathCollection_13">
    <g clip-path="url(#pad22458a7d)">
     <use style="fill:#d62728;stroke:#d62728;" x="218.81125" xlink:href="#m7b9de31cf0" y="156.892625"/>
    </g>
   </g>
   <g id="PathCollection_14">
    <g clip-path="url(#pad22458a7d)">
     <use style="fill:#d62728;stroke:#d62728;" x="218.81125" xlink:href="#m7b9de31cf0" y="106.919683"/>
    </g>
   </g>
   <g id="PathCollection_15">
    <g clip-path="url(#pad22458a7d)">
     <use style="fill:#d62728;stroke:#d62728;" x="218.81125" xlink:href="#m3a5043f688" y="56.946742"/>
    </g>
   </g>
   <g id="PathCollection_16">
    <g clip-path="url(#pad22458a7d)">
     <use style="fill:#d62728;stroke:#d62728;" x="268.784192" xlink:href="#m7b9de31cf0" y="256.838508"/>
    </g>
   </g>
   <g id="PathCollection_17">
    <defs>
     <path d="M 0 21.242646 
C 5.633616 21.242646 11.037251 19.004387 15.020819 15.020819 
C 19.004387 11.037251 21.242646 5.633616 21.242646 0 
C 21.242646 -5.633616 19.004387 -11.037251 15.020819 -15.020819 
C 11.037251 -19.004387 5.633616 -21.242646 0 -21.242646 
C -5.633616 -21.242646 -11.037251 -19.004387 -15.020819 -15.020819 
C -19.004387 -11.037251 -21.242646 -5.633616 -21.242646 0 
C -21.242646 5.633616 -19.004387 11.037251 -15.020819 15.020819 
C -11.037251 19.004387 -5.633616 21.242646 0 21.242646 
z
" id="mf885dd07a3" style="stroke:#d62728;"/>
    </defs>
    <g clip-path="url(#pad22458a7d)">
     <use style="fill:#d62728;stroke:#d62728;" x="268.784192" xlink:href="#mf885dd07a3" y="206.865567"/>
    </g>
   </g>
   <g id="PathCollection_18">
    <defs>
     <path d="M 0 26.004807 
C 6.896555 26.004807 13.511574 23.264777 18.388176 18.388176 
C 23.264777 13.511574 26.004807 6.896555 26.004807 0 
C 26.004807 -6.896555 23.264777 -13.511574 18.388176 -18.388176 
C 13.511574 -23.264777 6.896555 -26.004807 0 -26.004807 
C -6.896555 -26.004807 -13.511574 -23.264777 -18.388176 -18.388176 
C -23.264777 -13.511574 -26.004807 -6.896555 -26.004807 0 
C -26.004807 6.896555 -23.264777 13.511574 -18.388176 18.388176 
C -13.511574 23.264777 -6.896555 26.004807 0 26.004807 
z
" id="m8047eb9a0f" style="stroke:#d62728;"/>
    </defs>
    <g clip-path="url(#pad22458a7d)">
     <use style="fill:#d62728;stroke:#d62728;" x="268.784192" xlink:href="#m8047eb9a0f" y="156.892625"/>
    </g>
   </g>
   <g id="PathCollection_19">
    <g clip-path="url(#pad22458a7d)">
     <use style="fill:#d62728;stroke:#d62728;" x="268.784192" xlink:href="#mf885dd07a3" y="106.919683"/>
    </g>
   </g>
   <g id="PathCollection_20">
    <g clip-path="url(#pad22458a7d)">
     <use style="fill:#d62728;stroke:#d62728;" x="268.784192" xlink:href="#mf28d33426d" y="56.946742"/>
    </g>
   </g>
   <g id="PathCollection_21">
    <g clip-path="url(#pad22458a7d)">
     <use style="fill:#d62728;stroke:#d62728;" x="318.757133" xlink:href="#m3a5043f688" y="256.838508"/>
    </g>
   </g>
   <g id="PathCollection_22">
    <g clip-path="url(#pad22458a7d)">
     <use style="fill:#d62728;stroke:#d62728;" x="318.757133" xlink:href="#m3a5043f688" y="206.865567"/>
    </g>
   </g>
   <g id="PathCollection_23">
    <g clip-path="url(#pad22458a7d)">
     <use style="fill:#d62728;stroke:#d62728;" x="318.757133" xlink:href="#m5ba15b4b5c" y="156.892625"/>
    </g>
   </g>
   <g id="PathCollection_24">
    <g clip-path="url(#pad22458a7d)">
     <use style="fill:#d62728;stroke:#d62728;" x="318.757133" xlink:href="#mf28d33426d" y="106.919683"/>
    </g>
   </g>
   <g id="PathCollection_25">
    <g clip-path="url(#pad22458a7d)">
     <use style="fill:#d62728;stroke:#d62728;" x="318.757133" xlink:href="#m3a5043f688" y="56.946742"/>
    </g>
   </g>
   <g id="text_7">
    <!-- 1 -->
    <g style="fill:#ffffff;" transform="translate(115.528804 210.975651)scale(0.12 -0.12)">
     <defs>
      <path d="M 2519 0 
L 1641 0 
L 1641 3309 
Q 1159 2859 506 2644 
L 506 3441 
Q 850 3553 1253 3867 
Q 1656 4181 1806 4600 
L 2519 4600 
L 2519 0 
z
" id="Arial-BoldMT-31" transform="scale(0.015625)"/>
     </defs>
     <use xlink:href="#Arial-BoldMT-31"/>
    </g>
   </g>
   <g id="text_8">
    <!-- 1 -->
    <g style="fill:#ffffff;" transform="translate(115.528804 111.029767)scale(0.12 -0.12)">
     <use xlink:href="#Arial-BoldMT-31"/>
    </g>
   </g>
   <g id="text_9">
    <!-- 1 -->
    <g style="fill:#ffffff;" transform="translate(115.528804 61.056825)scale(0.12 -0.12)">
     <use xlink:href="#Arial-BoldMT-31"/>
    </g>
   </g>
   <g id="text_10">
    <!-- 2 -->
    <g style="fill:#ffffff;" transform="translate(165.501746 210.975651)scale(0.12 -0.12)">
     <defs>
      <path d="M 3238 816 
L 3238 0 
L 159 0 
Q 209 463 459 877 
Q 709 1291 1447 1975 
Q 2041 2528 2175 2725 
Q 2356 2997 2356 3263 
Q 2356 3556 2198 3714 
Q 2041 3872 1763 3872 
Q 1488 3872 1325 3706 
Q 1163 3541 1138 3156 
L 263 3244 
Q 341 3969 753 4284 
Q 1166 4600 1784 4600 
Q 2463 4600 2850 4234 
Q 3238 3869 3238 3325 
Q 3238 3016 3127 2736 
Q 3016 2456 2775 2150 
Q 2616 1947 2200 1565 
Q 1784 1184 1673 1059 
Q 1563 934 1494 816 
L 3238 816 
z
" id="Arial-BoldMT-32" transform="scale(0.015625)"/>
     </defs>
     <use xlink:href="#Arial-BoldMT-32"/>
    </g>
   </g>
   <g id="text_11">
    <!-- 1 -->
    <g style="fill:#ffffff;" transform="translate(165.501746 161.002709)scale(0.12 -0.12)">
     <use xlink:href="#Arial-BoldMT-31"/>
    </g>
   </g>
   <g id="text_12">
    <!-- 3 -->
    <g style="fill:#ffffff;" transform="translate(165.501746 111.029767)scale(0.12 -0.12)">
     <defs>
      <path d="M 241 1216 
L 1091 1319 
Q 1131 994 1309 822 
Q 1488 650 1741 650 
Q 2013 650 2198 856 
Q 2384 1063 2384 1413 
Q 2384 1744 2206 1937 
Q 2028 2131 1772 2131 
Q 1603 2131 1369 2066 
L 1466 2781 
Q 1822 2772 2009 2936 
Q 2197 3100 2197 3372 
Q 2197 3603 2059 3740 
Q 1922 3878 1694 3878 
Q 1469 3878 1309 3722 
Q 1150 3566 1116 3266 
L 306 3403 
Q 391 3819 561 4067 
Q 731 4316 1036 4458 
Q 1341 4600 1719 4600 
Q 2366 4600 2756 4188 
Q 3078 3850 3078 3425 
Q 3078 2822 2419 2463 
Q 2813 2378 3048 2084 
Q 3284 1791 3284 1375 
Q 3284 772 2843 347 
Q 2403 -78 1747 -78 
Q 1125 -78 715 280 
Q 306 638 241 1216 
z
" id="Arial-BoldMT-33" transform="scale(0.015625)"/>
     </defs>
     <use xlink:href="#Arial-BoldMT-33"/>
    </g>
   </g>
   <g id="text_13">
    <!-- 1 -->
    <g style="fill:#ffffff;" transform="translate(215.474687 260.948592)scale(0.12 -0.12)">
     <use xlink:href="#Arial-BoldMT-31"/>
    </g>
   </g>
   <g id="text_14">
    <!-- 3 -->
    <g style="fill:#ffffff;" transform="translate(215.474687 210.975651)scale(0.12 -0.12)">
     <use xlink:href="#Arial-BoldMT-33"/>
    </g>
   </g>
   <g id="text_15">
    <!-- 3 -->
    <g style="fill:#ffffff;" transform="translate(215.474687 161.002709)scale(0.12 -0.12)">
     <use xlink:href="#Arial-BoldMT-33"/>
    </g>
   </g>
   <g id="text_16">
    <!-- 3 -->
    <g style="fill:#ffffff;" transform="translate(215.474687 111.029767)scale(0.12 -0.12)">
     <use xlink:href="#Arial-BoldMT-33"/>
    </g>
   </g>
   <g id="text_17">
    <!-- 3 -->
    <g style="fill:#ffffff;" transform="translate(265.447629 260.948592)scale(0.12 -0.12)">
     <use xlink:href="#Arial-BoldMT-33"/>
    </g>
   </g>
   <g id="text_18">
    <!-- 6 -->
    <g style="fill:#ffffff;" transform="translate(265.447629 210.975651)scale(0.12 -0.12)">
     <defs>
      <path d="M 3247 3459 
L 2397 3366 
Q 2366 3628 2234 3753 
Q 2103 3878 1894 3878 
Q 1616 3878 1423 3628 
Q 1231 3378 1181 2588 
Q 1509 2975 1997 2975 
Q 2547 2975 2939 2556 
Q 3331 2138 3331 1475 
Q 3331 772 2918 347 
Q 2506 -78 1859 -78 
Q 1166 -78 719 461 
Q 272 1000 272 2228 
Q 272 3488 737 4044 
Q 1203 4600 1947 4600 
Q 2469 4600 2811 4308 
Q 3153 4016 3247 3459 
z
M 1256 1544 
Q 1256 1116 1453 883 
Q 1650 650 1903 650 
Q 2147 650 2309 840 
Q 2472 1031 2472 1466 
Q 2472 1913 2297 2120 
Q 2122 2328 1859 2328 
Q 1606 2328 1431 2129 
Q 1256 1931 1256 1544 
z
" id="Arial-BoldMT-36" transform="scale(0.015625)"/>
     </defs>
     <use xlink:href="#Arial-BoldMT-36"/>
    </g>
   </g>
   <g id="text_19">
    <!-- 9 -->
    <g style="fill:#ffffff;" transform="translate(265.447629 161.002709)scale(0.12 -0.12)">
     <defs>
      <path d="M 291 1059 
L 1141 1153 
Q 1172 894 1303 769 
Q 1434 644 1650 644 
Q 1922 644 2112 894 
Q 2303 1144 2356 1931 
Q 2025 1547 1528 1547 
Q 988 1547 595 1964 
Q 203 2381 203 3050 
Q 203 3747 617 4173 
Q 1031 4600 1672 4600 
Q 2369 4600 2816 4061 
Q 3263 3522 3263 2288 
Q 3263 1031 2797 475 
Q 2331 -81 1584 -81 
Q 1047 -81 715 205 
Q 384 491 291 1059 
z
M 2278 2978 
Q 2278 3403 2083 3637 
Q 1888 3872 1631 3872 
Q 1388 3872 1227 3680 
Q 1066 3488 1066 3050 
Q 1066 2606 1241 2398 
Q 1416 2191 1678 2191 
Q 1931 2191 2104 2391 
Q 2278 2591 2278 2978 
z
" id="Arial-BoldMT-39" transform="scale(0.015625)"/>
     </defs>
     <use xlink:href="#Arial-BoldMT-39"/>
    </g>
   </g>
   <g id="text_20">
    <!-- 6 -->
    <g style="fill:#ffffff;" transform="translate(265.447629 111.029767)scale(0.12 -0.12)">
     <use xlink:href="#Arial-BoldMT-36"/>
    </g>
   </g>
   <g id="text_21">
    <!-- 1 -->
    <g style="fill:#ffffff;" transform="translate(265.447629 61.056825)scale(0.12 -0.12)">
     <use xlink:href="#Arial-BoldMT-31"/>
    </g>
   </g>
   <g id="text_22">
    <!-- 2 -->
    <g style="fill:#ffffff;" transform="translate(315.420571 161.002709)scale(0.12 -0.12)">
     <use xlink:href="#Arial-BoldMT-32"/>
    </g>
   </g>
   <g id="text_23">
    <!-- 1 -->
    <g style="fill:#ffffff;" transform="translate(315.420571 111.029767)scale(0.12 -0.12)">
     <use xlink:href="#Arial-BoldMT-31"/>
    </g>
   </g>
  </g>
 </g>
 <defs>
  <clipPath id="pad22458a7d">
   <rect height="287.86525" width="256.4575" x="90.5825" y="12.96"/>
  </clipPath>
 </defs>
</svg>
